<svg xmlns="http://www.w3.org/2000/svg" viewBox="0 0 64 64" id="Bot"><path d="M59.81,31.85a2,2,0,0,0-2,2v2.76H55.39V17.21a2,2,0,0,0-2-2H34V13.65C40.25,11.41,38.73,2.06,32,2s-8.25,9.41-2,11.65v1.56H10.61a2,2,0,0,0-2,2v19.4H6.19V33.85a2,2,0,0,0-4,0v9.51a2,2,0,0,0,4,0V40.61H8.61V60a2,2,0,0,0,2,2H53.39a2,2,0,0,0,2-2V40.61h2.42v2.75a2,2,0,0,0,4,0V33.85A2,2,0,0,0,59.81,31.85ZM17.5,35.91V27.55a2,2,0,0,1,2-2h7.6a2,2,0,0,1,2,2v8.36a2,2,0,0,1-2,2H19.5A2,2,0,0,1,17.5,35.91ZM39.66,49.34H24.34a2,2,0,0,1,0-4H39.66A2,2,0,0,1,39.66,49.34ZM46.5,35.91a2,2,0,0,1-2,2H36.9a2,2,0,0,1-2-2V27.55a2,2,0,0,1,2-2h7.6a2,2,0,0,1,2,2Z" data-name="Layer 18" fill="#00fccc" class="color000000 svgShape"></path></svg>