<svg xmlns="http://www.w3.org/2000/svg" viewBox="0 0 64 64" id="Liquidity"><path d="M32.672 18.997a.994.994 0 0 0-1.09 0c-7.103 4.62-10.91 11.99-9.26 17.924 2.488 8.945 17.16 8.895 19.606-.163 1.588-5.881-2.219-13.185-9.256-17.76Zm7.325 17.24c-1.897 7.03-13.796 7.164-15.748.148-1.167-4.194 1.184-10.735 7.878-15.347 6.63 4.568 8.991 11.045 7.87 15.198Z" fill="#ffffff" class="color000000 svgShape"></path><path d="M30.848 29.398a3.766 3.766 0 0 1 2.894.188 1 1 0 0 0 1.494-1.33 3.712 3.712 0 0 0-2.12-.964v-.753a1 1 0 0 0-2 0v.74a4.64 4.64 0 0 0-.916.225 2.75 2.75 0 0 0-1.919 2.637c0 2.85 2.8 2.85 3.719 2.85 1.874 0 1.953.261 1.953.85 0 .164 0 .549-.726.798a3.436 3.436 0 0 1-2.768-.28 1 1 0 0 0-1.584 1.22 3.558 3.558 0 0 0 2.24 1.128v.746a1 1 0 0 0 2 0v-.74a4.739 4.739 0 0 0 .753-.18 2.792 2.792 0 0 0 2.085-2.692c0-2.85-2.77-2.85-3.953-2.85-1.719 0-1.719-.375-1.719-.85 0-.262.069-.534.567-.743zM26.22 9.973h2.667v5.423a1.008 1.008 0 0 0 1.01 1l4.453-.046a1 1 0 0 0 .989-1V9.973h2.67a1 1 0 0 0 .764-1.646L32.88 1.346a1.034 1.034 0 0 0-1.527 0l-5.895 6.981a1 1 0 0 0 .764 1.646zm-6.964 10.804-4.655-2.687 1.334-2.313a1 1 0 0 0-1.043-1.484L5.9 15.906a1 1 0 0 0-.763 1.323l3.096 8.597a1 1 0 0 0 1.807.161l1.335-2.31 4.696 2.712a1.001 1.001 0 0 0 1.371-.375l2.185-3.88a1 1 0 0 0-.371-1.357zm-1.979 17a1 1 0 0 0-1.36-.357l-4.657 2.688-1.334-2.312a.981.981 0 0 0-.955-.496.999.999 0 0 0-.852.657l-3.099 8.595a1 1 0 0 0 .764 1.323l8.993 1.615a1 1 0 0 0 1.043-1.484l-1.334-2.31 4.697-2.712a1 1 0 0 0 .36-1.375zM37.78 54.01h-2.667v-5.423a.997.997 0 0 0-1.01-1l-4.453.046a1 1 0 0 0-.989 1v5.377h-2.67a1 1 0 0 0-.764 1.645l5.894 6.982a1 1 0 0 0 1.527 0l5.896-6.982a1 1 0 0 0-.764-1.645zm17.987-15.853a1 1 0 0 0-1.807-.16l-1.334 2.309-4.697-2.712a1 1 0 0 0-1.371.375l-2.186 3.879a1 1 0 0 0 .371 1.357l4.655 2.689-1.334 2.311a1 1 0 0 0 1.043 1.484l8.993-1.613a1 1 0 0 0 .763-1.323zm3.138-21.565a1 1 0 0 0-.69-.485l-8.993-1.615a1 1 0 0 0-1.043 1.485l1.335 2.31-4.698 2.711a1 1 0 0 0-.36 1.375l2.267 3.832a1 1 0 0 0 1.36.357l4.656-2.688 1.335 2.313a.981.981 0 0 0 .955.496.999.999 0 0 0 .852-.658l3.099-8.594a.996.996 0 0 0-.075-.84z" fill="#ffffff" class="color000000 svgShape"></path></svg>