<svg xmlns="http://www.w3.org/2000/svg" viewBox="0 0 64 64" id="Liquidity"><path d="M32.672 18.997a.994.994 0 0 0-1.09 0c-12.884 8.38-12.945 24.136.51 24.594a.39.39 0 0 0 .035 0h.049c13.434-.662 13.32-16.254.496-24.594Zm-.553 22.594c-11.741-.433-9.972-13.677.008-20.553 10.006 6.895 11.641 19.947-.008 20.553Z" fill="#52cc99" class="color000000 svgShape"></path><path d="M30.848 29.398a3.766 3.766 0 0 1 2.894.188 1 1 0 0 0 1.494-1.33 3.712 3.712 0 0 0-2.12-.964v-.753a1 1 0 0 0-2 0v.74c-1.935.304-2.835 1.489-2.835 2.862 0 2.85 2.8 2.85 3.719 2.85 1.874 0 1.953.261 1.953.85 0 1.242-3.02 1.126-3.494.517a1 1 0 0 0-1.584 1.221 3.558 3.558 0 0 0 2.24 1.128v.746a1 1 0 0 0 2 0v-.74c1.942-.32 2.838-1.522 2.838-2.872 0-2.85-2.77-2.85-3.953-2.85-1.719 0-1.719-.375-1.719-.85 0-.262.069-.534.567-.743zM26.22 9.973h2.667v5.423a1 1 0 0 0 2 0V8.973a1 1 0 0 0-1-1h-1.514l3.741-4.432 3.742 4.432H34.34a1 1 0 0 0-1 1v6.377a1 1 0 0 0 2 0V9.973h2.67a1 1 0 0 0 .764-1.646L32.88 1.346a1.034 1.034 0 0 0-1.527 0l-5.895 6.981a1 1 0 0 0 .764 1.646zm-6.964 10.804-4.655-2.687 1.334-2.313a1 1 0 0 0-1.043-1.484L5.9 15.906a1 1 0 0 0-.763 1.323l3.096 8.597a1 1 0 0 0 1.807.161l1.335-2.31 4.696 2.712a1 1 0 0 0 1-1.733l-5.562-3.21a.999.999 0 0 0-1.366.366l-.758 1.311-1.966-5.457 5.708-1.024-.759 1.314a1 1 0 0 0 .366 1.366l5.522 3.188a1 1 0 0 0 1-1.733zm-1.073 20.475-5.563 3.21a1 1 0 0 0-.366 1.367l.758 1.312-5.708-1.025 1.966-5.455.757 1.314a.999.999 0 0 0 .608.465 1.02 1.02 0 0 0 .759-.1l5.523-3.188a1 1 0 0 0-1-1.732l-4.657 2.688-1.334-2.312a.981.981 0 0 0-.955-.496.999.999 0 0 0-.852.657l-3.099 8.595a1 1 0 0 0 .764 1.323l8.993 1.615a1 1 0 0 0 1.043-1.484l-1.334-2.31 4.697-2.712a1 1 0 0 0-1-1.732zM37.779 54.01h-2.667v-5.423a1 1 0 0 0-2 0v6.423a1 1 0 0 0 1 1h1.514l-3.742 4.431-3.741-4.431h1.517a1 1 0 0 0 1-1v-6.377a1 1 0 0 0-2 0v5.377h-2.67a1 1 0 0 0-.764 1.645l5.894 6.982a1 1 0 0 0 1.527 0l5.896-6.982a1 1 0 0 0-.764-1.645zm17.987-15.853a1 1 0 0 0-1.807-.16l-1.334 2.309-4.697-2.712a1 1 0 1 0-1 1.732l5.562 3.212a1.002 1.002 0 0 0 1.366-.366l.758-1.312 1.966 5.456-5.708 1.025.758-1.314a1 1 0 0 0-.366-1.366l-5.522-3.188a1 1 0 1 0-1 1.732l4.655 2.689-1.334 2.311a1 1 0 0 0 1.043 1.484l8.993-1.613a1 1 0 0 0 .763-1.323zm3.138-21.565a1 1 0 0 0-.69-.485l-8.993-1.615a1 1 0 0 0-1.043 1.485l1.335 2.31-4.698 2.711a1 1 0 1 0 1 1.732l5.564-3.21a1 1 0 0 0 .366-1.367l-.758-1.311 5.708 1.025-1.966 5.454-.758-1.313a1 1 0 0 0-1.367-.366l-5.522 3.188a1 1 0 1 0 1 1.733l4.656-2.689 1.335 2.313a.981.981 0 0 0 .955.496.999.999 0 0 0 .852-.658l3.099-8.594a.996.996 0 0 0-.075-.84z" fill="#52cc99" class="color000000 svgShape"></path></svg>