<svg xmlns="http://www.w3.org/2000/svg" enable-background="new 0 0 504 504.001" viewBox="0 0 504 504.001" id="FinancialManagement"><path d="M491.297,379.465c-4.384-4.744-10.58-7.465-16.998-7.465H436v-68c0-2.209-1.791-4-4-4H256v-28.095
		c46.674-2.099,84-40.723,84-87.905c0-32.606-18.311-62.691-46.99-77.842c1.208-2.123,2.763-4.87,4.63-8.204v0
		c5.019-8.963,12.164-22.001,17.694-33.209c0.777-1.569,0.88-3.421,0.283-5.082c-0.565-1.572-1.679-2.795-3.133-3.445
		c-4.445-1.99-15.953-6.728-26.756-7.759c-3.765-0.376-7.365,1.441-9.648,4.869l-5.132,6.943l-0.558-8.66
		c-0.294-4.075-3.16-7.208-6.794-7.575c-1.717-11.183-8.778-22.031-18.415-27.825c-11.036-6.632-24.425-6.792-37.721-0.443
		c-8.597,4.155-15.567,5.259-19.627,3.106c-3.816-2.021-6.412-6.715-7.715-13.952C179.605,2.071,177.125,0,174.22,0h-11.86
		c-1.744,0-3.398,0.758-4.539,2.079c-1.145,1.325-1.654,3.08-1.399,4.809c3.307,22.636,16.279,31.131,20.175,33.196
		c11.305,5.994,25.194,5.087,41.257-2.685c5.991-2.862,10.888-3.065,14.961-0.624c2.906,1.752,5.028,4.702,6.187,7.549
		c-2.947,0.928-5.137,3.758-5.393,7.317l-0.556,8.629l-5.132-6.943c-2.283-3.427-5.879-5.241-9.631-4.871
		c-10.82,1.033-22.328,5.771-26.771,7.76c-1.457,0.651-2.57,1.875-3.136,3.446c-0.598,1.66-0.495,3.513,0.28,5.076
		c5.533,11.213,12.678,24.251,17.697,33.214c1.865,3.331,3.419,6.077,4.63,8.204C182.311,121.309,164,151.394,164,184
		c0,47.183,37.326,85.806,84,87.905V300H72c-2.209,0-4,1.791-4,4v64H29.7c-6.417,0-12.613,2.721-17.001,7.469
		C7.957,380.612,0,391.938,0,410s7.957,29.388,12.703,34.535C17.087,449.279,23.283,452,29.7,452h84.6
		c6.417,0,12.613-2.721,17.001-7.469C136.043,439.388,144,428.062,144,410s-7.957-29.388-12.703-34.535
		c-4.384-4.744-10.58-7.465-16.998-7.465H76v-60h172v60h-38.3c-6.417,0-12.613,2.721-17.001,7.469
		C187.957,380.612,180,391.938,180,410s7.957,29.388,12.703,34.535c4.384,4.744,10.58,7.465,16.998,7.465h84.6
		c6.417,0,12.613-2.721,17.001-7.469C316.043,439.388,324,428.062,324,410s-7.957-29.388-12.703-34.535
		c-4.384-4.744-10.58-7.465-16.998-7.465H256v-60h172v64h-38.3c-6.417,0-12.613,2.721-17.001,7.469
		C367.957,384.612,360,395.938,360,414s7.957,29.388,12.703,34.535c4.384,4.744,10.58,7.465,16.998,7.465h84.6
		c6.417,0,12.613-2.721,17.001-7.469C496.043,443.388,504,432.062,504,414S496.043,384.612,491.297,379.465z M236.936,29.919
		c-4.448-2.666-11.967-4.785-22.548,0.271c-13.662,6.609-25.115,7.56-34.045,2.826c-2.93-1.552-12.416-7.826-15.628-25.015h7.855
		c1.901,8.869,5.771,14.902,11.517,17.944c8.162,4.326,19.108,0.771,26.837-2.965c10.776-5.146,21.478-5.115,30.135,0.089
		c7.194,4.325,12.724,12.537,14.411,20.932h-8.162C245.938,38.987,242.518,33.284,236.936,29.919z M220.685,106.984l-0.658-1.14
		c-0.673-1.17-1.812-3.157-3.334-5.844h70.614c-1.52,2.684-2.655,4.665-3.32,5.821l-0.684,1.184
		c-0.353,0.614-1.017,0.995-1.733,0.995h-59.14C221.714,108,221.05,107.619,220.685,106.984z M252,228.11c-2.209,0-4-1.791-4-4
		v-5.746c-11.335-1.782-20-10.995-20-22.064c0-2.209,1.791-4,4-4s4,1.791,4,4c0,6.686,5.111,12.304,12,13.907v-28.55
		c-11.8-1.623-20-10.415-20-22.097c0-11.064,8.665-20.273,20-22.053V132c0-2.209,1.791-4,4-4s4,1.791,4,4v5.507
		c11.335,1.781,20,10.989,20,22.053c0,2.209-1.791,4-4,4s-4-1.791-4-4c0-6.681-5.111-12.296-12-13.897v28.493
		c12.76,1.339,20,9.227,20,22.143c0,11.069-8.665,20.282-20,22.064v5.746C256,226.319,254.209,228.11,252,228.11z" fill="#ffffff" class="color000000 svgShape"></path><path d="M268 196.3c0-3.229-.003-12.449-12-14.11v28.017C262.889 208.604 268 202.986 268 196.3zM236 159.56c0 7.2 4.774 12.538 12 13.973v-27.87C241.111 147.264 236 152.879 236 159.56zM236.012 464.071c-.002 0-.004 0-.007 0-.002 0-.004 0-.006 0h-34.11c-2.209 0-4 1.791-4 4s1.791 4 4 4h23.272C211.313 482.344 189.563 492 164 492c-31.236 0-56.788-14.417-69.176-26.764-1.565-1.56-4.097-1.555-5.657.01-1.559 1.565-1.555 4.098.01 5.657C102.646 484.326 130.324 500 164 500c25.634 0 47.784-9.083 62.846-19.341l-6.917 17.899c-.796 2.061.229 4.376 2.289 5.173.474.183.961.27 1.441.27 1.605 0 3.119-.973 3.732-2.559l12.311-31.857c.001-.003.002-.007.004-.01C240.852 466.747 238.57 464.013 236.012 464.071zM265.178 353.166c-1.565 1.559-1.571 4.092-.012 5.657 1.559 1.565 4.092 1.57 5.657.012 12.398-12.347 37.956-26.765 69.178-26.765 25.55 0 47.302 9.656 61.158 19.93H377.89c-2.209 0-4 1.791-4 4s1.791 4 4 4H412c2.33.106 4.881-2.398 3.705-5.51-.001-.002-.001-.004-.002-.005l-12.312-31.857c-.797-2.06-3.111-3.084-5.173-2.289-2.061.796-3.085 3.112-2.289 5.173l6.919 17.904c-15.067-10.26-37.221-19.346-62.849-19.346C306.339 324.07 278.656 339.744 265.178 353.166z" fill="#ffffff" class="color000000 svgShape"></path></svg>