<svg xmlns="http://www.w3.org/2000/svg" viewBox="0 0 32 32" id="Liquidity"><path d="M16.429 23.571h-2.143a1 1 0 1 1 0-2h2.143a.286.286 0 0 0 0-.571h-.858a2.286 2.286 0 0 1 0-4.571h2.143a1 1 0 1 1 0 2H15.57a.286.286 0 0 0 0 .571h.858a2.286 2.286 0 0 1 0 4.571Z" fill="#00c6ff" class="color000000 svgShape"></path><path d="M16 18.429a1 1 0 0 1-1-1v-.858a1 1 0 0 1 2 0v.858a1 1 0 0 1-1 1zm0 6a1 1 0 0 1-1-1v-.858a1 1 0 0 1 2 0v.858a1 1 0 0 1-1 1z" fill="#00c6ff" class="color000000 svgShape"></path><path d="M16 30a9.174 9.174 0 0 1-9-9.32c0-4.873 7.448-12.355 8.298-13.192a1 1 0 0 1 1.404 0c.85.837 8.298 8.32 8.298 13.192A9.174 9.174 0 0 1 16 30Zm0-20.373c-2.454 2.566-7 7.959-7 11.053A7.174 7.174 0 0 0 16 28a7.174 7.174 0 0 0 7-7.32c0-3.098-4.545-8.488-7-11.053Z" fill="#00c6ff" class="color000000 svgShape"></path><path d="M23.419 24.79a1 1 0 0 1-.054-1.998A7.183 7.183 0 0 0 30 15.48c0-3.097-4.542-8.484-6.997-11.05a47.539 47.539 0 0 0-4.753 5.808 1 1 0 0 1-1.66-1.115 50.428 50.428 0 0 1 5.709-6.835 1 1 0 0 1 1.403 0C24.551 3.124 32 10.602 32 15.48a9.182 9.182 0 0 1-8.525 9.309l-.056.001zm-14.838 0-.056-.001A9.182 9.182 0 0 1 0 15.48C0 10.602 7.45 3.124 8.298 2.288a1 1 0 0 1 1.403 0 50.428 50.428 0 0 1 5.709 6.835 1 1 0 0 1-1.66 1.115A47.539 47.539 0 0 0 8.997 4.43C6.542 6.996 2 12.383 2 15.48a7.183 7.183 0 0 0 6.635 7.311 1 1 0 0 1-.054 1.999z" fill="#00c6ff" class="color000000 svgShape"></path></svg>