<svg xmlns="http://www.w3.org/2000/svg" enable-background="new 0 0 5000 4000" viewBox="0 0 5000 4000" id="stripes-on-tv"><path fill="#d48257" d="M854.274,3558h-73.807c-32.695,0-59.2-26.505-59.2-59.2v-249.988h244.949l-53.96,261.933
						C906.589,3538.258,882.366,3558,854.274,3558z"></path><path fill="#15164d" d="M854.274,3564.369h-73.807c-36.155,0-65.569-29.414-65.569-65.569v-249.988
						c0-3.518,2.852-6.369,6.37-6.369h244.949c1.915,0,3.728,0.861,4.938,2.345c1.209,1.484,1.688,3.435,1.301,5.31l-53.96,261.934
						C912.248,3542.357,885.239,3564.369,854.274,3564.369z M727.637,3255.181V3498.8c0,29.131,23.699,52.831,52.83,52.831h73.807
						c24.949,0,46.71-17.735,51.744-42.171l52.383-254.279H727.637z"></path><path fill="#bf6b3f" d="M721.268,3386.073c2.329,0.165,4.642,0.388,6.988,0.498l207.586,9.682l30.375-147.442H721.268
					V3386.073z"></path><path fill="#15164d" d="M935.849,3402.624c-0.426,0-0.858-0.043-1.292-0.133c-3.445-0.71-5.663-4.078-4.953-7.523
					l28.797-139.788H727.637v130.894c0,3.518-2.852,6.369-6.37,6.369s-6.37-2.852-6.37-6.369v-137.263
					c0-3.518,2.852-6.369,6.37-6.369h244.949c1.915,0,3.728,0.861,4.938,2.345c1.209,1.484,1.688,3.435,1.301,5.31l-30.375,147.442
					C941.46,3400.55,938.808,3402.624,935.849,3402.624z"></path><g><path fill="#d48257" d="M4150.898,3558h73.807c32.695,0,59.2-26.505,59.2-59.2v-249.988h-244.949l53.96,261.933
						C4098.583,3538.258,4122.807,3558,4150.898,3558z"></path><path fill="#15164d" d="M4224.705,3564.369h-73.807c-30.964,0-57.973-22.012-64.221-52.339l-53.96-261.934
						c-0.387-1.875,0.091-3.825,1.301-5.31c1.21-1.483,3.022-2.345,4.938-2.345h244.949c3.518,0,6.369,2.852,6.369,6.369V3498.8
						C4290.274,3534.955,4260.86,3564.369,4224.705,3564.369z M4046.771,3255.181l52.383,254.279
						c5.034,24.436,26.796,42.171,51.744,42.171h73.807c29.131,0,52.831-23.7,52.831-52.831v-243.619H4046.771z"></path><path fill="#bf6b3f" d="M4283.905,3385.756v-136.945h-244.949l30.344,147.293l202.5-9.483
					C4275.862,3386.43,4279.89,3386.112,4283.905,3385.756z"></path><path fill="#15164d" d="M4069.292,3402.476c-2.959,0-5.611-2.074-6.231-5.086l-30.344-147.294
					c-0.387-1.875,0.091-3.825,1.301-5.309c1.21-1.484,3.022-2.346,4.938-2.346h244.95c3.518,0,6.369,2.852,6.369,6.369v136.945
					c0,3.518-2.852,6.369-6.369,6.369s-6.369-2.852-6.369-6.369V3255.18h-230.766l28.767,139.64c0.71,3.445-1.508,6.813-4.953,7.523
					C4070.15,3402.433,4069.718,3402.476,4069.292,3402.476z"></path></g><g><path fill="#15164d" d="M4196.857,3301.922l-742.84,34.789c-632.877,29.639-1266.792,29.7-1899.675,0.181l-751.13-35.033
					c-194.476-9.071-347.487-169.384-347.487-364.072V863.199c0-194.688,153.011-355.001,347.487-364.072l751.13-35.033
					c632.882-29.518,1266.798-29.458,1899.675,0.181l742.84,34.789c194.448,9.106,347.417,169.408,347.417,364.069v2074.721
					C4544.274,3132.514,4391.305,3292.816,4196.857,3301.922z"></path><path fill="#15164d" d="M2502.223,3365.264c-316.832,0-633.559-7.334-948.177-22.009l-751.129-35.033
					c-95.702-4.463-184.836-45.09-250.983-114.395c-66.148-69.305-102.577-160.235-102.577-256.04V863.199
					c0-95.805,36.429-186.735,102.577-256.041c66.147-69.305,155.282-109.93,250.983-114.394l751.129-35.034
					c630.466-29.404,1269.81-29.344,1900.269,0.182l742.84,34.789c95.688,4.481,184.806,45.115,250.938,114.417
					c66.132,69.302,102.552,160.223,102.552,256.015v2074.721c0,95.792-36.42,186.713-102.552,256.015
					s-155.25,109.937-250.938,114.417l-742.84,34.788C3138.47,3357.865,2820.294,3365.264,2502.223,3365.264z M2502.222,448.461
					c-316.633,0-633.162,7.33-947.582,21.995l-751.13,35.034c-191.447,8.929-341.414,166.054-341.414,357.709v2074.588
					c0,191.656,149.967,348.781,341.414,357.71l751.13,35.033c630.072,29.387,1269.014,29.325,1899.079-0.182l742.84-34.788
					l0.298,6.362l-0.298-6.362c191.409-8.964,341.346-166.088,341.346-357.707V863.132c0-191.619-149.937-348.742-341.346-357.707
					l-742.84-34.789C3138.071,455.855,2820.094,448.461,2502.222,448.461z"></path><g><path fill="#f7a28b" d="M4071.058,3208.454l-582.739,28.284c-655.783,31.83-1312.722,31.897-1968.512,0.202
					l-590.79-28.554c-194.223-9.387-346.873-169.593-346.873-364.043v-1887.7c0-194.45,152.65-354.656,346.873-364.043
					l590.79-28.554c655.789-31.695,1312.729-31.628,1968.512,0.202l582.739,28.284c194.192,9.426,346.798,169.618,346.798,364.039
					v1887.843C4417.856,3038.836,4265.25,3199.028,4071.058,3208.454z"></path><path fill="#15164d" d="M2501.963,3266.933c-328.272,0-656.486-7.876-982.463-23.631l-590.791-28.554
					c-95.577-4.619-184.565-45.315-250.574-114.592c-66.008-69.275-102.361-160.125-102.361-255.813v-1887.7
					c0-95.688,36.353-186.538,102.361-255.814c66.009-69.275,154.998-109.972,250.574-114.59l590.791-28.554
					c325.938-15.753,654.229-23.631,982.46-23.631c329.678,0,659.297,7.943,986.668,23.833l582.738,28.284
					c95.562,4.638,184.534,45.343,250.525,114.615c65.991,69.272,102.334,160.112,102.334,255.787v1887.842
					c0,95.675-36.343,186.515-102.334,255.787s-154.963,109.977-250.525,114.615l-582.738,28.284
					C3161.296,3258.987,2831.601,3266.933,2501.963,3266.933z M2501.963,546.792c-328.066,0-656.075,7.871-981.849,23.616
					l-590.79,28.554c-191.109,9.236-340.811,166.348-340.811,357.68v1887.7c0,191.332,149.702,348.445,340.811,357.681
					l590.79,28.554c325.733,15.743,653.829,23.616,981.855,23.616c329.471,0,658.874-7.938,986.041-23.817l582.738-28.284
					l0.309,6.362l-0.309-6.362c191.068-9.273,340.738-166.385,340.738-357.678V956.572c0-191.293-149.67-348.404-340.738-357.678
					l-582.738-28.284C3160.885,554.732,2831.395,546.792,2501.963,546.792z"></path></g></g><g><path fill="#15164d" d="M3136.703,3039.816l-472.108,36.097c-272.806,20.859-830.763,20.859-1103.569,0l-472.109-36.097
					c-207.43-15.86-367.65-188.798-367.65-396.834V1138.624c0-208.036,160.22-380.973,367.65-396.834l472.109-36.098
					c272.806-20.859,830.764-20.859,1103.569,0l472.108,36.098c207.43,15.86,367.65,188.798,367.65,396.834v1504.358
					C3504.353,2851.018,3344.134,3023.956,3136.703,3039.816z"></path><path fill="#15164d" d="M2112.81,3097.951c-207.746,0-415.493-5.229-552.27-15.686l-472.108-36.099
					c-101.928-7.793-196.324-53.384-265.798-128.373s-107.736-172.586-107.736-274.812V1138.625
					c0-102.226,38.262-199.822,107.736-274.812s163.87-120.58,265.798-128.374l472.108-36.098
					c273.554-20.916,830.985-20.916,1104.54,0l472.108,36.098c101.929,7.793,196.324,53.384,265.799,128.374
					s107.735,172.586,107.735,274.812v1504.358c0,102.226-38.261,199.822-107.735,274.812s-163.87,120.58-265.799,128.373
					l-472.108,36.099C2528.303,3092.723,2320.557,3097.951,2112.81,3097.951z M2112.811,696.384
					c-207.381,0-414.762,5.22-551.299,15.66l-472.109,36.098c-202.859,15.511-361.766,187.031-361.766,390.483v1504.358
					c0,203.451,158.907,374.972,361.766,390.483l472.109,36.098c273.073,20.879,829.523,20.879,1102.598,0l472.108-36.098
					l0.485,6.351l-0.485-6.351c202.859-15.511,361.767-187.032,361.767-390.483V1138.625c0-203.452-158.907-374.972-361.767-390.483
					l-472.108-36.098C2527.572,701.604,2320.191,696.384,2112.811,696.384z"></path><g><path fill="#fff" d="M3077.763,2971.223l-440.557,33.685c-254.573,19.465-794.219,19.465-1048.793,0l-440.556-33.685
						c-193.567-14.8-343.079-176.18-343.079-370.312V1180.696c0-194.132,149.512-355.512,343.079-370.312l440.556-33.685
						c254.574-19.465,794.219-19.465,1048.793,0l440.557,33.685c193.567,14.8,343.079,176.18,343.079,370.312v1420.214
						C3420.843,2795.043,3271.331,2956.423,3077.763,2971.223z"></path><path fill="#15164d" d="M2112.811,3025.887c-198.67,0-397.341-4.876-524.882-14.628l-440.557-33.686
						c-95.224-7.28-183.41-49.871-248.314-119.928c-64.904-70.057-100.649-161.233-100.649-256.735V1180.696
						c0-95.501,35.745-186.678,100.649-256.734c64.905-70.057,153.091-112.648,248.314-119.929l440.557-33.685
						c255.082-19.504,794.682-19.504,1049.764,0l440.557,33.685c95.224,7.281,183.409,49.873,248.314,119.929
						c64.904,70.057,100.648,161.233,100.648,256.734V2600.91c0,95.502-35.744,186.678-100.648,256.735
						c-64.905,70.057-153.091,112.647-248.314,119.928l-0.485-6.351l0.485,6.351l-440.557,33.686
						C2510.151,3021.011,2311.481,3025.887,2112.811,3025.887z M2112.81,768.449c-198.303,0-396.605,4.867-523.911,14.601
						l-440.557,33.685c-189.081,14.457-337.195,174.328-337.195,363.961V2600.91c0,189.634,148.114,349.505,337.195,363.962
						l440.557,33.686c254.611,19.467,793.211,19.467,1047.822,0l440.557-33.686c189.081-14.457,337.195-174.328,337.195-363.962
						V1180.696c0-189.633-148.114-349.504-337.195-363.961l-440.557-33.685C2509.416,773.316,2311.113,768.449,2112.81,768.449z"></path><path fill="#8e8fe8" d="M1588.414,776.699l-440.557,33.685c-125.385,9.587-232.265,80.691-292.017,182.349h2513.941
								c-59.751-101.658-166.633-172.762-292.018-182.349l-440.556-33.685C2382.634,757.234,1842.988,757.234,1588.414,776.699z"></path><path fill="#15164d" d="M3369.781,999.103H855.84c-2.284,0-4.394-1.224-5.529-3.207
								c-1.134-1.982-1.12-4.421,0.038-6.391c62.723-106.712,173.76-176.048,297.022-185.473l440.558-33.685l0.485,6.351
								l-0.485-6.351c255.083-19.503,794.683-19.503,1049.765,0l440.556,33.685c123.264,9.425,234.301,78.76,297.023,185.473
								c1.157,1.969,1.172,4.408,0.037,6.391C3374.175,997.879,3372.065,999.103,3369.781,999.103z M867.171,986.363h2491.278
								c-61.513-97.667-165.801-160.807-281.171-169.628l-440.556-33.685c-254.612-19.468-793.212-19.468-1047.823,0
								l-440.557,33.685C1032.972,825.556,928.685,888.696,867.171,986.363z"></path><path fill="#a3a4f0" d="M3267.833,880.295c-53.951-39.29-119.036-64.48-190.069-69.911l-440.556-33.685
							c-254.574-19.465-794.22-19.465-1048.794,0l-440.557,33.685c-125.385,9.587-232.265,80.691-292.018,182.349H3181.95
							C3218.511,949.127,3246.812,910.91,3267.833,880.295z"></path><path fill="#15164d" d="M3193.87,999.103H855.84c-2.284,0-4.394-1.224-5.528-3.207
							c-1.135-1.982-1.121-4.421,0.037-6.391c62.724-106.712,173.76-176.048,297.023-185.473l440.557-33.685
							c255.084-19.504,794.683-19.504,1049.765,0l440.556,33.685c69.94,5.348,136.794,29.938,193.334,71.113
							c2.843,2.071,3.47,6.055,1.398,8.898c-2.07,2.844-6.056,3.469-8.898,1.399c-54.627-39.783-119.224-63.542-186.805-68.709
							l-440.556-33.686c-254.611-19.467-793.212-19.467-1047.822,0l-440.558,33.686c-115.37,8.821-219.657,71.961-281.171,169.628
							H3193.87c3.518,0,6.369,2.852,6.369,6.37S3197.388,999.103,3193.87,999.103z"></path><path fill="#3e4178" d="M804.778,1180.696v177.308h2616.064v-177.308c0-68.38-18.57-132.684-51.062-187.963H855.84
								C823.349,1048.012,804.778,1112.316,804.778,1180.696z"></path><path fill="#15164d" d="M3420.843,1364.374H804.778c-3.518,0-6.37-2.852-6.37-6.37v-177.308
								c0-67.267,17.96-133.38,51.94-191.19c1.144-1.947,3.233-3.142,5.491-3.142h2513.941c2.258,0,4.347,1.195,5.491,3.142
								c33.979,57.811,51.939,123.923,51.939,191.19v177.308C3427.212,1361.522,3424.36,1364.374,3420.843,1364.374z
								 M811.148,1351.634h2603.326v-170.938c0-63.785-16.709-126.489-48.357-181.593H859.505
								c-31.649,55.104-48.357,117.808-48.357,181.593V1351.634z"></path><path fill="#343778" d="M3420.843,1358.004v-177.308c0-34.138-4.631-67.259-13.31-98.75
							c-13.002,60.873-36.844,157.615-77.087,276.058H3420.843z"></path><path fill="#15164d" d="M3420.843,1364.374h-90.396c-3.518,0-6.369-2.852-6.369-6.37s2.852-6.37,6.369-6.37h84.027
							v-170.938c0-32.909-4.401-65.563-13.081-97.058c-0.935-3.392,1.057-6.898,4.448-7.833c3.39-0.932,6.898,1.056,7.833,4.448
							c8.983,32.597,13.538,66.39,13.538,100.442v177.308C3427.212,1361.521,3424.36,1364.374,3420.843,1364.374z"></path><path fill="#484c8c" d="M3181.95,992.733H855.84c-32.491,55.279-51.062,119.583-51.062,187.963v177.308h1972.941
							C2966.007,1225.848,3096.525,1094.618,3181.95,992.733z"></path><path fill="#15164d" d="M2804.625,1364.374H804.778c-3.518,0-6.369-2.852-6.369-6.37v-177.308
							c0-67.267,17.96-133.38,51.939-191.19c1.144-1.947,3.233-3.142,5.491-3.142h2326.11c3.518,0,6.369,2.852,6.369,6.37
							c0,3.518-2.852,6.369-6.369,6.369H859.505c-31.649,55.104-48.358,117.808-48.358,181.594v170.938h1993.478
							c3.518,0,6.369,2.852,6.369,6.37S2808.143,1364.374,2804.625,1364.374z"></path><g><rect width="2616.064" height="365.27" x="804.778" y="1358.004" fill="#8e8fe8"></rect><path fill="#15164d" d="M3420.843,1729.644H804.778c-3.518,0-6.37-2.852-6.37-6.37v-365.271
								c0-3.518,2.852-6.37,6.37-6.37h2616.064c3.518,0,6.369,2.852,6.369,6.37v365.271
								C3427.212,1726.792,3424.36,1729.644,3420.843,1729.644z M811.148,1716.905h2603.326v-352.531H811.148V1716.905z"></path><path fill="#7778d4" d="M3420.843,1723.274v-365.27h-90.396c-36.5,107.429-86.503,232.71-154.139,365.27H3420.843z"></path><path fill="#15164d" d="M3420.843,1729.644h-244.535c-3.518,0-6.369-2.852-6.369-6.37s2.852-6.37,6.369-6.37h238.166
							v-352.531h-84.027c-3.518,0-6.369-2.852-6.369-6.37s2.852-6.37,6.369-6.37h90.396c3.518,0,6.369,2.852,6.369,6.37v365.271
							C3427.212,1726.792,3424.36,1729.644,3420.843,1729.644z"></path><path fill="#a3a4f0" d="M804.778,1358.004v365.27h1238.309c308.654-104.614,549.555-235.37,734.632-365.27H804.778z"></path><path fill="#15164d" d="M2085.582,1729.644H804.778c-3.518,0-6.37-2.852-6.37-6.37v-365.271
							c0-3.518,2.852-6.37,6.37-6.37h1972.94c3.518,0,6.369,2.852,6.369,6.37c0,3.518-2.852,6.37-6.369,6.37H811.148v352.531
							h1274.434c3.518,0,6.37,2.852,6.37,6.37C2091.952,1726.792,2089.1,1729.644,2085.582,1729.644z"></path></g><g><rect width="2616.064" height="365.27" x="804.778" y="1723.274" fill="#3e4178"></rect><path fill="#15164d" d="M3420.843,2094.914H804.778c-3.518,0-6.37-2.852-6.37-6.369v-365.271
								c0-3.518,2.852-6.37,6.37-6.37h2616.064c3.518,0,6.369,2.852,6.369,6.37v365.271
								C3427.212,2092.062,3424.36,2094.914,3420.843,2094.914z M811.148,2082.176h2603.326v-352.532H811.148V2082.176z"></path><path fill="#343778" d="M3420.843,2088.545v-365.271h-244.536c-60.443,118.461-134.977,242.73-226.562,365.271
							H3420.843z"></path><path fill="#15164d" d="M3420.843,2094.914h-471.099c-3.518,0-6.369-2.852-6.369-6.369s2.852-6.369,6.369-6.369
							h464.729v-352.532h-238.166c-3.518,0-6.369-2.852-6.369-6.37s2.852-6.37,6.369-6.37h244.535c3.518,0,6.369,2.852,6.369,6.37
							v365.271C3427.212,2092.062,3424.36,2094.914,3420.843,2094.914z"></path><path fill="#484c8c" d="M2043.087,1723.274H804.778v212.814C1304.939,1917.166,1712.829,1835.21,2043.087,1723.274z"></path><path fill="#15164d" d="M804.778,1942.458c-3.518,0-6.37-2.852-6.37-6.37v-212.814c0-3.518,2.852-6.37,6.37-6.37
							h1238.309c3.518,0,6.37,2.852,6.37,6.37s-2.852,6.37-6.37,6.37H811.148v206.444
							C811.148,1939.606,808.296,1942.458,804.778,1942.458z"></path></g><g><rect width="2616.064" height="365.271" x="804.778" y="2088.545" fill="#8e8fe8"></rect><path fill="#15164d" d="M3420.843,2460.185H804.778c-3.518,0-6.37-2.852-6.37-6.369v-365.271
								c0-3.518,2.852-6.369,6.37-6.369h2616.064c3.518,0,6.369,2.852,6.369,6.369v365.271
								C3427.212,2457.333,3424.36,2460.185,3420.843,2460.185z M811.148,2447.446h2603.326v-352.532H811.148V2447.446z"></path><path fill="#7778d4" d="M3420.843,2453.815v-365.271h-471.098c-94.437,126.357-206.994,250.871-340.938,365.271
							H3420.843z"></path><path fill="#15164d" d="M3420.843,2460.185h-812.036c-3.518,0-6.369-2.852-6.369-6.369s2.852-6.369,6.369-6.369
							h805.667v-352.532h-478.921c-3.518,0-6.369-2.852-6.369-6.369s2.852-6.369,6.369-6.369h485.29
							c3.518,0,6.369,2.852,6.369,6.369v365.271C3427.212,2457.333,3424.36,2460.185,3420.843,2460.185z"></path></g><g><path fill="#3e4178" d="M804.778,2453.815v147.095c0,81.246,26.2,156.746,70.844,218.176h2474.375
								c44.645-61.43,70.845-136.929,70.845-218.176v-147.095H804.778z"></path><path fill="#15164d" d="M3349.997,2825.455H875.623c-2.039,0-3.954-0.976-5.152-2.625
								c-47.143-64.867-72.062-141.606-72.062-221.92v-147.095c0-3.518,2.852-6.369,6.37-6.369h2616.064
								c3.518,0,6.369,2.852,6.369,6.369v147.095c0,80.314-24.919,157.054-72.062,221.92
								C3353.951,2824.479,3352.035,2825.455,3349.997,2825.455z M878.885,2812.717h2467.85
								c44.328-62.117,67.739-135.281,67.739-211.807v-140.726H811.148v140.726C811.148,2677.436,834.558,2750.598,878.885,2812.717
								z"></path><path fill="#343778" d="M2608.807,2453.815c-167.343,142.926-368.062,270.055-608.473,365.271h1349.664
							c44.646-61.43,70.845-136.93,70.845-218.176v-147.095H2608.807z"></path><path fill="#15164d" d="M3349.998,2825.455H2000.334c-3.518,0-6.37-2.852-6.37-6.369s2.852-6.369,6.37-6.369h1346.402
							c44.327-62.117,67.737-135.28,67.737-211.807v-140.726h-823.58c-3.518,0-6.369-2.852-6.369-6.369s2.852-6.369,6.369-6.369
							h829.949c3.518,0,6.369,2.852,6.369,6.369v147.095c0,80.315-24.918,157.054-72.062,221.921
							C3353.952,2824.479,3352.037,2825.455,3349.998,2825.455z"></path></g><g><path fill="#8e8fe8" d="M875.622,2819.086c62.03,85.351,159.678,143.531,272.234,152.136l440.557,33.686
								c254.574,19.465,794.22,19.465,1048.794,0l440.556-33.686c112.557-8.606,210.205-66.785,272.234-152.136H875.622z"></path><path fill="#15164d" d="M2112.811,3025.887c-198.671,0-397.341-4.876-524.882-14.628l-440.558-33.686
								c-110.652-8.46-211.579-64.861-276.901-154.743c-1.408-1.938-1.61-4.501-0.523-6.636c1.087-2.134,3.28-3.478,5.675-3.478
								h2474.375c2.396,0,4.588,1.344,5.676,3.478c1.087,2.135,0.885,4.698-0.523,6.636
								c-65.321,89.882-166.247,146.284-276.9,154.743l-440.556,33.686C2510.152,3021.011,2311.481,3025.887,2112.811,3025.887z
								 M888.394,2825.455c63.202,80.968,157.236,131.563,259.949,139.417l440.557,33.686c254.612,19.468,793.212,19.468,1047.823,0
								l440.556-33.686c102.712-7.854,196.746-58.449,259.947-139.417H888.394z"></path><path fill="#7778d4" d="M2637.208,3004.908l440.556-33.686c112.557-8.606,210.205-66.785,272.234-152.136H2000.334
							c-204.159,80.859-436.959,138.685-702.256,163.623l290.337,22.199C1842.988,3024.373,2382.635,3024.373,2637.208,3004.908z"></path><path fill="#15164d" d="M2112.812,3025.887c-198.67,0-397.341-4.876-524.883-14.628l-290.336-22.199
							c-3.508-0.268-6.134-3.329-5.865-6.836c0.268-3.509,3.318-6.128,6.836-5.865l290.337,22.199
							c254.611,19.467,793.211,19.467,1047.822,0l440.556-33.686c102.713-7.854,196.747-58.45,259.948-139.417H1968.101
							c-3.518,0-6.369-2.852-6.369-6.369s2.852-6.369,6.369-6.369h1381.897c2.396,0,4.588,1.344,5.676,3.478
							c1.087,2.135,0.885,4.698-0.523,6.636c-65.32,89.881-166.247,146.282-276.901,154.743l-440.556,33.686
							C2510.152,3021.011,2311.482,3025.887,2112.812,3025.887z"></path></g><g><path fill="#fff" d="M1019.618 1705.486c-1.618 0-3.237-.613-4.479-1.84-2.501-2.474-2.524-6.506-.051-9.008l333.205-336.977c2.474-2.502 6.506-2.524 9.008-.051 2.501 2.474 2.524 6.506.051 9.008l-333.205 336.977C1022.901 1704.854 1021.26 1705.486 1019.618 1705.486zM1523.95 1195.445c-1.618 0-3.237-.613-4.479-1.84-2.501-2.474-2.524-6.506-.051-9.008l277.077-280.214c2.474-2.502 6.506-2.524 9.008-.051 2.501 2.474 2.524 6.506.051 9.008l-277.077 280.214C1527.233 1194.813 1525.591 1195.445 1523.95 1195.445zM999.118 1413.736c-1.618 0-3.237-.613-4.479-1.84-2.501-2.474-2.524-6.506-.051-9.008l431.695-436.582c2.474-2.502 6.506-2.524 9.008-.051 2.501 2.474 2.524 6.506.051 9.008l-431.695 436.582C1002.401 1413.104 1000.76 1413.736 999.118 1413.736z"></path></g></g></g><g><path fill="#d48257" d="M3806.587,1988.701h-123.965c-39.093,0-70.783-31.691-70.783-70.783V896.815
						c0-39.093,31.691-70.783,70.783-70.783h123.965c39.093,0,70.783,31.691,70.783,70.783v1021.102
						C3877.37,1957.01,3845.679,1988.701,3806.587,1988.701z"></path><path fill="#15164d" d="M3806.587,1995.07h-123.965c-42.542,0-77.152-34.611-77.152-77.153V896.815
						c0-42.542,34.61-77.153,77.152-77.153h123.965c42.542,0,77.152,34.611,77.152,77.153v1021.103
						C3883.739,1960.459,3849.129,1995.07,3806.587,1995.07z M3682.622,832.401c-35.518,0-64.414,28.896-64.414,64.414v1021.103
						c0,35.518,28.896,64.414,64.414,64.414h123.965c35.518,0,64.414-28.896,64.414-64.414V896.815
						c0-35.518-28.896-64.414-64.414-64.414H3682.622z"></path><path fill="#15164d" d="M3788.727,1859.559c-19.125,34.797-69.121,34.797-88.246,0
						c-16.986-30.905-25.892-65.599-25.892-100.865v-651.472c0-35.265,8.906-69.96,25.892-100.865
						c19.125-34.797,69.121-34.797,88.246,0c16.986,30.905,25.892,65.599,25.892,100.865v651.472
						C3814.619,1793.959,3805.713,1828.654,3788.727,1859.559z"></path><path fill="#15164d" d="M3744.604,1892.026C3744.603,1892.026,3744.604,1892.026,3744.604,1892.026
						c-21.007,0-39.588-10.991-49.705-29.399c-17.453-31.755-26.679-67.695-26.679-103.933v-651.472
						c0-36.238,9.226-72.177,26.679-103.933c10.117-18.409,28.698-29.399,49.704-29.399c21.007,0,39.588,10.991,49.705,29.399
						c17.454,31.756,26.68,67.696,26.68,103.933v651.472c0,36.236-9.226,72.175-26.679,103.932l0,0
						C3784.192,1881.035,3765.609,1892.026,3744.604,1892.026z M3744.604,986.629c-16.287,0-30.695,8.521-38.54,22.796
						c-16.424,29.881-25.104,63.698-25.104,97.797v651.472c0,34.099,8.681,67.916,25.104,97.797
						c7.845,14.274,22.252,22.795,38.54,22.795c16.288,0,30.696-8.521,38.542-22.796l5.582,3.068l-5.582-3.068
						c16.423-29.882,25.104-63.7,25.104-97.796v-651.472c0-34.097-8.682-67.915-25.105-97.797
						C3775.3,995.151,3760.892,986.629,3744.604,986.629z"></path><circle cx="3674.255" cy="890.455" r="26.657" fill="#fff"></circle><path fill="#15164d" d="M3674.255,923.482c-18.212,0-33.027-14.816-33.027-33.027c0-18.211,14.815-33.027,33.027-33.027
						c18.211,0,33.026,14.816,33.026,33.027C3707.281,908.667,3692.466,923.482,3674.255,923.482z M3674.255,870.167
						c-11.188,0-20.289,9.101-20.289,20.288c0,11.187,9.102,20.288,20.289,20.288c11.187,0,20.288-9.101,20.288-20.288
						C3694.543,879.269,3685.441,870.167,3674.255,870.167z"></path><g><path fill="#15164d" d="M3877.37 965.002h-265.531c-3.518 0-6.369-2.852-6.369-6.37s2.852-6.37 6.369-6.37h265.531c3.518 0 6.369 2.852 6.369 6.37S3880.888 965.002 3877.37 965.002zM3877.37 1017.845h-265.531c-3.518 0-6.369-2.852-6.369-6.37s2.852-6.37 6.369-6.37h265.531c3.518 0 6.369 2.852 6.369 6.37S3880.888 1017.845 3877.37 1017.845zM3877.37 1070.688h-265.531c-3.518 0-6.369-2.852-6.369-6.37s2.852-6.37 6.369-6.37h265.531c3.518 0 6.369 2.852 6.369 6.37S3880.888 1070.688 3877.37 1070.688zM3877.37 1123.531h-265.531c-3.518 0-6.369-2.852-6.369-6.37s2.852-6.37 6.369-6.37h265.531c3.518 0 6.369 2.852 6.369 6.37S3880.888 1123.531 3877.37 1123.531zM3877.37 1176.374h-265.531c-3.518 0-6.369-2.852-6.369-6.37s2.852-6.37 6.369-6.37h265.531c3.518 0 6.369 2.852 6.369 6.37S3880.888 1176.374 3877.37 1176.374zM3877.37 1229.217h-265.531c-3.518 0-6.369-2.852-6.369-6.37s2.852-6.37 6.369-6.37h265.531c3.518 0 6.369 2.852 6.369 6.37S3880.888 1229.217 3877.37 1229.217zM3877.37 1282.06h-265.531c-3.518 0-6.369-2.852-6.369-6.37s2.852-6.37 6.369-6.37h265.531c3.518 0 6.369 2.852 6.369 6.37S3880.888 1282.06 3877.37 1282.06zM3877.37 1334.903h-265.531c-3.518 0-6.369-2.852-6.369-6.37s2.852-6.37 6.369-6.37h265.531c3.518 0 6.369 2.852 6.369 6.37S3880.888 1334.903 3877.37 1334.903zM3877.37 1387.746h-265.531c-3.518 0-6.369-2.852-6.369-6.37s2.852-6.37 6.369-6.37h265.531c3.518 0 6.369 2.852 6.369 6.37S3880.888 1387.746 3877.37 1387.746zM3877.37 1440.589h-265.531c-3.518 0-6.369-2.852-6.369-6.37s2.852-6.37 6.369-6.37h265.531c3.518 0 6.369 2.852 6.369 6.37S3880.888 1440.589 3877.37 1440.589zM3877.37 1493.432h-265.531c-3.518 0-6.369-2.852-6.369-6.37s2.852-6.37 6.369-6.37h265.531c3.518 0 6.369 2.852 6.369 6.37S3880.888 1493.432 3877.37 1493.432zM3877.37 1546.275h-265.531c-3.518 0-6.369-2.852-6.369-6.37s2.852-6.37 6.369-6.37h265.531c3.518 0 6.369 2.852 6.369 6.37S3880.888 1546.275 3877.37 1546.275zM3877.37 1599.118h-265.531c-3.518 0-6.369-2.852-6.369-6.37s2.852-6.37 6.369-6.37h265.531c3.518 0 6.369 2.852 6.369 6.37S3880.888 1599.118 3877.37 1599.118zM3877.37 1651.961h-265.531c-3.518 0-6.369-2.852-6.369-6.37s2.852-6.37 6.369-6.37h265.531c3.518 0 6.369 2.852 6.369 6.37S3880.888 1651.961 3877.37 1651.961zM3877.37 1704.804h-265.531c-3.518 0-6.369-2.852-6.369-6.37s2.852-6.37 6.369-6.37h265.531c3.518 0 6.369 2.852 6.369 6.37S3880.888 1704.804 3877.37 1704.804zM3877.37 1757.647h-265.531c-3.518 0-6.369-2.852-6.369-6.37s2.852-6.37 6.369-6.37h265.531c3.518 0 6.369 2.852 6.369 6.37S3880.888 1757.647 3877.37 1757.647zM3877.37 1810.49h-265.531c-3.518 0-6.369-2.852-6.369-6.37s2.852-6.37 6.369-6.37h265.531c3.518 0 6.369 2.852 6.369 6.37S3880.888 1810.49 3877.37 1810.49zM3877.37 1863.333h-265.531c-3.518 0-6.369-2.852-6.369-6.37s2.852-6.37 6.369-6.37h265.531c3.518 0 6.369 2.852 6.369 6.37S3880.888 1863.333 3877.37 1863.333zM3877.37 1916.176h-265.531c-3.518 0-6.369-2.852-6.369-6.37s2.852-6.37 6.369-6.37h265.531c3.518 0 6.369 2.852 6.369 6.37S3880.888 1916.176 3877.37 1916.176z"></path><g><path fill="#fff" d="M3791.442 1017.845h-96.979c-3.518 0-6.369-2.852-6.369-6.37s2.852-6.37 6.369-6.37h96.979c3.518 0 6.369 2.852 6.369 6.37S3794.96 1017.845 3791.442 1017.845zM3810.168 1070.688H3674.59c-3.518 0-6.369-2.852-6.369-6.37s2.852-6.37 6.369-6.37h135.578c3.518 0 6.369 2.852 6.369 6.37S3813.686 1070.688 3810.168 1070.688zM3814.619 1123.531h-142.803c-3.518 0-6.369-2.852-6.369-6.37s2.852-6.37 6.369-6.37h142.803c3.518 0 6.369 2.852 6.369 6.37S3818.137 1123.531 3814.619 1123.531zM3814.619 1176.374h-142.803c-3.518 0-6.369-2.852-6.369-6.37s2.852-6.37 6.369-6.37h142.803c3.518 0 6.369 2.852 6.369 6.37S3818.137 1176.374 3814.619 1176.374zM3814.619 1229.217h-142.803c-3.518 0-6.369-2.852-6.369-6.37s2.852-6.37 6.369-6.37h142.803c3.518 0 6.369 2.852 6.369 6.37S3818.137 1229.217 3814.619 1229.217zM3814.619 1282.06h-142.803c-3.518 0-6.369-2.852-6.369-6.37s2.852-6.37 6.369-6.37h142.803c3.518 0 6.369 2.852 6.369 6.37S3818.137 1282.06 3814.619 1282.06zM3814.619 1334.903h-142.803c-3.518 0-6.369-2.852-6.369-6.37s2.852-6.37 6.369-6.37h142.803c3.518 0 6.369 2.852 6.369 6.37S3818.137 1334.903 3814.619 1334.903zM3814.619 1387.746h-142.803c-3.518 0-6.369-2.852-6.369-6.37s2.852-6.37 6.369-6.37h142.803c3.518 0 6.369 2.852 6.369 6.37S3818.137 1387.746 3814.619 1387.746zM3814.619 1440.589h-142.803c-3.518 0-6.369-2.852-6.369-6.37s2.852-6.37 6.369-6.37h142.803c3.518 0 6.369 2.852 6.369 6.37S3818.137 1440.589 3814.619 1440.589zM3814.619 1493.432h-142.803c-3.518 0-6.369-2.852-6.369-6.37s2.852-6.37 6.369-6.37h142.803c3.518 0 6.369 2.852 6.369 6.37S3818.137 1493.432 3814.619 1493.432zM3814.619 1546.275h-142.803c-3.518 0-6.369-2.852-6.369-6.37s2.852-6.37 6.369-6.37h142.803c3.518 0 6.369 2.852 6.369 6.37S3818.137 1546.275 3814.619 1546.275zM3814.619 1599.118h-142.803c-3.518 0-6.369-2.852-6.369-6.37s2.852-6.37 6.369-6.37h142.803c3.518 0 6.369 2.852 6.369 6.37S3818.137 1599.118 3814.619 1599.118zM3814.619 1651.961h-142.803c-3.518 0-6.369-2.852-6.369-6.37s2.852-6.37 6.369-6.37h142.803c3.518 0 6.369 2.852 6.369 6.37S3818.137 1651.961 3814.619 1651.961zM3814.619 1704.804h-142.803c-3.518 0-6.369-2.852-6.369-6.37s2.852-6.37 6.369-6.37h142.803c3.518 0 6.369 2.852 6.369 6.37S3818.137 1704.804 3814.619 1704.804zM3814.619 1757.647h-142.803c-3.518 0-6.369-2.852-6.369-6.37s2.852-6.37 6.369-6.37h142.803c3.518 0 6.369 2.852 6.369 6.37S3818.137 1757.647 3814.619 1757.647zM3811.237 1810.49H3674.59c-3.518 0-6.369-2.852-6.369-6.37s2.852-6.37 6.369-6.37h136.647c3.518 0 6.369 2.852 6.369 6.37S3814.755 1810.49 3811.237 1810.49zM3792.364 1863.333h-97.193c-3.518 0-6.369-2.852-6.369-6.37s2.852-6.37 6.369-6.37h97.193c3.518 0 6.369 2.852 6.369 6.37S3795.882 1863.333 3792.364 1863.333z"></path></g></g><g><circle cx="4140.448" cy="1048.79" r="159.064" fill="#8e8fe8"></circle><path fill="#15164d" d="M4140.448,1214.224c-91.22,0-165.433-74.213-165.433-165.434s74.213-165.433,165.433-165.433
						c91.221,0,165.434,74.213,165.434,165.433S4231.669,1214.224,4140.448,1214.224z M4140.448,896.096
						c-84.195,0-152.694,68.498-152.694,152.694c0,84.196,68.499,152.694,152.694,152.694c84.196,0,152.695-68.498,152.695-152.694
						C4293.144,964.594,4224.645,896.096,4140.448,896.096z"></path><circle cx="4140.448" cy="1048.79" r="101.878" fill="#15164d"></circle><path fill="#15164d" d="M4140.448,1157.038c-59.688,0-108.247-48.56-108.247-108.248s48.56-108.248,108.247-108.248
						s108.247,48.56,108.247,108.248S4200.136,1157.038,4140.448,1157.038z M4140.448,953.282
						c-52.663,0-95.509,42.845-95.509,95.508s42.846,95.509,95.509,95.509s95.509-42.845,95.509-95.509
						S4193.111,953.282,4140.448,953.282z"></path><g><path fill="#8e8fe8" d="M4209.867,1116.885l-164.524-88.36c-6.457-3.468-8.881-11.514-5.413-17.972l13.128-24.445
						c3.468-6.457,11.514-8.881,17.972-5.413l164.524,88.36c6.458,3.468,8.881,11.514,5.413,17.972l-13.129,24.445
						C4224.371,1117.93,4216.324,1120.353,4209.867,1116.885z"></path><path fill="#15164d" d="M4216.113,1124.831c-3.135,0-6.311-0.751-9.26-2.335l-164.524-88.36
						c-4.622-2.482-8.001-6.615-9.514-11.639c-1.513-5.023-0.979-10.335,1.503-14.958l13.129-24.445
						c5.124-9.54,17.054-13.134,26.597-8.011l164.524,88.36c4.622,2.482,8.001,6.616,9.514,11.64
						c1.513,5.024,0.979,10.336-1.504,14.958l-13.128,24.444C4229.909,1121.078,4223.118,1124.831,4216.113,1124.831z
						 M4064.763,985.486c-2.462,0-4.849,1.319-6.093,3.636l-13.129,24.445c-0.872,1.624-1.06,3.491-0.528,5.256
						c0.532,1.766,1.719,3.218,3.344,4.09l164.524,88.36l0,0c3.354,1.802,7.547,0.538,9.347-2.815l13.128-24.444
						c0.873-1.625,1.061-3.491,0.528-5.256c-0.531-1.766-1.719-3.218-3.343-4.091l-164.524-88.36
						C4066.98,985.75,4065.863,985.486,4064.763,985.486z"></path></g></g><g><circle cx="4140.448" cy="1765.942" r="159.064" fill="#8e8fe8"></circle><path fill="#15164d" d="M4140.448,1931.375c-91.22,0-165.433-74.213-165.433-165.433s74.213-165.434,165.433-165.434
						c91.221,0,165.434,74.213,165.434,165.434S4231.669,1931.375,4140.448,1931.375z M4140.448,1613.248
						c-84.195,0-152.694,68.498-152.694,152.694c0,84.196,68.499,152.694,152.694,152.694c84.196,0,152.695-68.498,152.695-152.694
						C4293.144,1681.746,4224.645,1613.248,4140.448,1613.248z"></path><circle cx="4140.448" cy="1765.942" r="101.878" fill="#15164d"></circle><path fill="#15164d" d="M4140.448,1874.19c-59.688,0-108.247-48.56-108.247-108.248s48.56-108.248,108.247-108.248
						s108.247,48.56,108.247,108.248S4200.136,1874.19,4140.448,1874.19z M4140.448,1670.434c-52.663,0-95.509,42.845-95.509,95.508
						s42.846,95.508,95.509,95.508s95.509-42.845,95.509-95.508S4193.111,1670.434,4140.448,1670.434z"></path><g><path fill="#8e8fe8" d="M4209.867,1834.037l-164.524-88.36c-6.457-3.468-8.881-11.514-5.413-17.972l13.128-24.445
						c3.468-6.457,11.514-8.881,17.972-5.413l164.524,88.36c6.458,3.468,8.881,11.514,5.413,17.972l-13.129,24.445
						C4224.371,1835.082,4216.324,1837.505,4209.867,1834.037z"></path><path fill="#15164d" d="M4216.113,1841.983c-3.135,0-6.311-0.75-9.26-2.334l-164.524-88.36
						c-9.541-5.124-13.135-17.055-8.011-26.597l13.129-24.445c2.482-4.622,6.615-8,11.639-9.514
						c5.021-1.512,10.334-0.98,14.958,1.503l164.524,88.36c4.622,2.482,8,6.616,9.514,11.639c1.513,5.024,0.979,10.336-1.504,14.958
						l-13.128,24.444C4229.909,1838.23,4223.118,1841.983,4216.113,1841.983z M4212.881,1828.426
						c3.352,1.799,7.545,0.538,9.347-2.816l13.128-24.444c0.873-1.625,1.061-3.491,0.528-5.256c-0.531-1.766-1.719-3.218-3.343-4.09
						l-164.524-88.36c-1.625-0.872-3.493-1.06-5.257-0.528c-1.765,0.532-3.218,1.719-4.09,3.343l-13.129,24.445
						c-1.801,3.353-0.537,7.546,2.815,9.347L4212.881,1828.426z"></path></g></g><g><circle cx="4012.115" cy="1407.211" r="39.454" fill="#15164d"></circle><path fill="#15164d" d="M4012.115,1453.035c-25.268,0-45.823-20.557-45.823-45.824s20.556-45.823,45.823-45.823
						s45.823,20.556,45.823,45.823S4037.383,1453.035,4012.115,1453.035z M4012.115,1374.127c-18.243,0-33.085,14.841-33.085,33.084
						c0,18.243,14.842,33.084,33.085,33.084s33.085-14.841,33.085-33.084C4045.2,1388.968,4030.358,1374.127,4012.115,1374.127z"></path><circle cx="4140.448" cy="1407.211" r="39.454" fill="#8e8fe8"></circle><path fill="#15164d" d="M4140.448,1453.035c-25.268,0-45.823-20.557-45.823-45.824s20.556-45.823,45.823-45.823
						s45.823,20.556,45.823,45.823S4165.716,1453.035,4140.448,1453.035z M4140.448,1374.127c-18.243,0-33.085,14.841-33.085,33.084
						c0,18.243,14.842,33.084,33.085,33.084s33.085-14.841,33.085-33.084C4173.533,1388.968,4158.691,1374.127,4140.448,1374.127z"></path><g><circle cx="4268.782" cy="1407.211" r="39.454" fill="#15164d"></circle><path fill="#15164d" d="M4268.781,1453.035c-25.268,0-45.823-20.557-45.823-45.824s20.556-45.823,45.823-45.823
						s45.823,20.556,45.823,45.823S4294.049,1453.035,4268.781,1453.035z M4268.781,1374.127c-18.243,0-33.085,14.841-33.085,33.084
						c0,18.243,14.842,33.084,33.085,33.084s33.085-14.841,33.085-33.084C4301.866,1388.968,4287.024,1374.127,4268.781,1374.127z"></path></g></g><g><path fill="#15164d" d="M3772.793,2303.299h-132.775c-15.563,0-28.179-12.616-28.179-28.179v-83.138
							c0-15.563,12.616-28.179,28.179-28.179h132.775c15.563,0,28.179,12.616,28.179,28.179v83.138
							C3800.973,2290.682,3788.356,2303.299,3772.793,2303.299z"></path><path fill="#15164d" d="M3772.793 2309.668h-132.775c-19.05 0-34.548-15.498-34.548-34.549v-83.138c0-19.051 15.498-34.549 34.548-34.549h132.775c19.051 0 34.549 15.498 34.549 34.549v83.138C3807.342 2294.17 3791.844 2309.668 3772.793 2309.668zM3640.018 2170.171c-12.025 0-21.81 9.784-21.81 21.811v83.138c0 12.026 9.784 21.811 21.81 21.811h132.775c12.026 0 21.811-9.784 21.811-21.811v-83.138c0-12.026-9.784-21.811-21.811-21.811H3640.018zM4271.333 2303.299h-132.775c-15.563 0-28.18-12.616-28.18-28.179v-83.138c0-15.563 12.617-28.179 28.18-28.179h132.775c15.563 0 28.179 12.616 28.179 28.179v83.138C4299.512 2290.682 4286.896 2303.299 4271.333 2303.299z"></path><path fill="#15164d" d="M4271.333 2309.668h-132.775c-19.051 0-34.549-15.498-34.549-34.549v-83.138c0-19.051 15.498-34.549 34.549-34.549h132.775c19.051 0 34.549 15.498 34.549 34.549v83.138C4305.882 2294.17 4290.384 2309.668 4271.333 2309.668zM4138.558 2170.171c-12.026 0-21.811 9.784-21.811 21.811v83.138c0 12.026 9.784 21.811 21.811 21.811h132.775c12.026 0 21.811-9.784 21.811-21.811v-83.138c0-12.026-9.784-21.811-21.811-21.811H4138.558zM4022.063 2505.235h-132.775c-15.563 0-28.179-12.616-28.179-28.179v-83.138c0-15.563 12.616-28.179 28.179-28.179h132.775c15.563 0 28.179 12.616 28.179 28.179v83.138C4050.242 2492.618 4037.626 2505.235 4022.063 2505.235z"></path><path fill="#15164d" d="M4022.063,2511.604h-132.775c-19.051,0-34.549-15.498-34.549-34.548v-83.139
							c0-19.051,15.498-34.549,34.549-34.549h132.775c19.05,0,34.548,15.498,34.548,34.549v83.139
							C4056.611,2496.105,4041.113,2511.604,4022.063,2511.604z M3889.288,2372.106c-12.026,0-21.811,9.784-21.811,21.811v83.139
							c0,12.025,9.784,21.81,21.811,21.81h132.775c12.025,0,21.81-9.784,21.81-21.81v-83.139c0-12.026-9.784-21.811-21.81-21.811
							H3889.288z"></path><g><path fill="#15164d" d="M3772.793,2707.17h-132.775c-15.563,0-28.179-12.616-28.179-28.179v-83.138
							c0-15.563,12.616-28.179,28.179-28.179h132.775c15.563,0,28.179,12.616,28.179,28.179v83.138
							C3800.973,2694.554,3788.356,2707.17,3772.793,2707.17z"></path><path fill="#15164d" d="M3772.793,2713.539h-132.775c-19.05,0-34.548-15.498-34.548-34.548v-83.139
							c0-19.05,15.498-34.548,34.548-34.548h132.775c19.051,0,34.549,15.498,34.549,34.548v83.139
							C3807.342,2698.041,3791.844,2713.539,3772.793,2713.539z M3640.018,2574.043c-12.025,0-21.81,9.784-21.81,21.81v83.139
							c0,12.025,9.784,21.81,21.81,21.81h132.775c12.026,0,21.811-9.784,21.811-21.81v-83.139c0-12.025-9.784-21.81-21.811-21.81
							H3640.018z"></path></g><g><path fill="#15164d" d="M4271.333,2707.17h-132.775c-15.563,0-28.18-12.616-28.18-28.179v-83.138
							c0-15.563,12.617-28.179,28.18-28.179h132.775c15.563,0,28.179,12.616,28.179,28.179v83.138
							C4299.512,2694.554,4286.896,2707.17,4271.333,2707.17z"></path><path fill="#15164d" d="M4271.333,2713.539h-132.775c-19.051,0-34.549-15.498-34.549-34.548v-83.139
							c0-19.05,15.498-34.548,34.549-34.548h132.775c19.051,0,34.549,15.498,34.549,34.548v83.139
							C4305.882,2698.041,4290.384,2713.539,4271.333,2713.539z M4138.558,2574.043c-12.026,0-21.811,9.784-21.811,21.81v83.139
							c0,12.025,9.784,21.81,21.811,21.81h132.775c12.026,0,21.811-9.784,21.811-21.81v-83.139c0-12.025-9.784-21.81-21.811-21.81
							H4138.558z"></path></g><g><path fill="#3e4178" d="M4022.063,2303.299h-132.775c-15.563,0-28.179-12.616-28.179-28.179v-83.138
							c0-15.563,12.616-28.179,28.179-28.179h132.775c15.563,0,28.179,12.616,28.179,28.179v83.138
							C4050.242,2290.682,4037.626,2303.299,4022.063,2303.299z"></path><path fill="#15164d" d="M4022.063,2309.668h-132.775c-19.051,0-34.549-15.498-34.549-34.549v-83.138
							c0-19.051,15.498-34.549,34.549-34.549h132.775c19.05,0,34.548,15.498,34.548,34.549v83.138
							C4056.611,2294.17,4041.113,2309.668,4022.063,2309.668z M3889.288,2170.171c-12.026,0-21.811,9.784-21.811,21.811v83.138
							c0,12.026,9.784,21.811,21.811,21.811h132.775c12.025,0,21.81-9.784,21.81-21.811v-83.138c0-12.026-9.784-21.811-21.81-21.811
							H3889.288z"></path><path fill="#3e4178" d="M3772.793,2505.235h-132.775c-15.563,0-28.179-12.616-28.179-28.179v-83.138
							c0-15.563,12.616-28.179,28.179-28.179h132.775c15.563,0,28.179,12.616,28.179,28.179v83.138
							C3800.973,2492.618,3788.356,2505.235,3772.793,2505.235z"></path><path fill="#15164d" d="M3772.793,2511.604h-132.775c-19.05,0-34.548-15.498-34.548-34.548v-83.139
							c0-19.051,15.498-34.549,34.548-34.549h132.775c19.051,0,34.549,15.498,34.549,34.549v83.139
							C3807.342,2496.105,3791.844,2511.604,3772.793,2511.604z M3640.018,2372.106c-12.025,0-21.81,9.784-21.81,21.811v83.139
							c0,12.025,9.784,21.81,21.81,21.81h132.775c12.026,0,21.811-9.784,21.811-21.81v-83.139c0-12.026-9.784-21.811-21.811-21.811
							H3640.018z"></path><path fill="#3e4178" d="M4271.333,2505.235h-132.775c-15.563,0-28.18-12.616-28.18-28.179v-83.138
							c0-15.563,12.617-28.179,28.18-28.179h132.775c15.563,0,28.179,12.616,28.179,28.179v83.138
							C4299.512,2492.618,4286.896,2505.235,4271.333,2505.235z"></path><path fill="#15164d" d="M4271.333,2511.604h-132.775c-19.051,0-34.549-15.498-34.549-34.548v-83.139
							c0-19.051,15.498-34.549,34.549-34.549h132.775c19.051,0,34.549,15.498,34.549,34.549v83.139
							C4305.882,2496.105,4290.384,2511.604,4271.333,2511.604z M4138.558,2372.106c-12.026,0-21.811,9.784-21.811,21.811v83.139
							c0,12.025,9.784,21.81,21.811,21.81h132.775c12.026,0,21.811-9.784,21.811-21.81v-83.139c0-12.026-9.784-21.811-21.811-21.811
							H4138.558z"></path><path fill="#3e4178" d="M4022.063,2707.17h-132.775c-15.563,0-28.179-12.616-28.179-28.179v-83.138
							c0-15.563,12.616-28.179,28.179-28.179h132.775c15.563,0,28.179,12.616,28.179,28.179v83.138
							C4050.242,2694.554,4037.626,2707.17,4022.063,2707.17z"></path><path fill="#15164d" d="M4022.063,2713.539h-132.775c-19.051,0-34.549-15.498-34.549-34.548v-83.139
							c0-19.05,15.498-34.548,34.549-34.548h132.775c19.05,0,34.548,15.498,34.548,34.548v83.139
							C4056.611,2698.041,4041.113,2713.539,4022.063,2713.539z M3889.288,2574.043c-12.026,0-21.811,9.784-21.811,21.81v83.139
							c0,12.025,9.784,21.81,21.811,21.81h132.775c12.025,0,21.81-9.784,21.81-21.81v-83.139c0-12.025-9.784-21.81-21.81-21.81
							H3889.288z"></path><g><path fill="#3e4178" d="M3772.793,2909.106h-132.775c-15.563,0-28.179-12.616-28.179-28.179v-83.138
							c0-15.563,12.616-28.179,28.179-28.179h132.775c15.563,0,28.179,12.616,28.179,28.179v83.138
							C3800.973,2896.49,3788.356,2909.106,3772.793,2909.106z"></path><path fill="#15164d" d="M3772.793,2915.476h-132.775c-19.05,0-34.548-15.498-34.548-34.549v-83.138
							c0-19.051,15.498-34.549,34.548-34.549h132.775c19.051,0,34.549,15.498,34.549,34.549v83.138
							C3807.342,2899.978,3791.844,2915.476,3772.793,2915.476z M3640.018,2775.979c-12.025,0-21.81,9.784-21.81,21.811v83.138
							c0,12.026,9.784,21.811,21.81,21.811h132.775c12.026,0,21.811-9.784,21.811-21.811v-83.138
							c0-12.026-9.784-21.811-21.811-21.811H3640.018z"></path></g><g><path fill="#3e4178" d="M4022.063,2909.106h-132.775c-15.563,0-28.179-12.616-28.179-28.179v-83.138
							c0-15.563,12.616-28.179,28.179-28.179h132.775c15.563,0,28.179,12.616,28.179,28.179v83.138
							C4050.242,2896.49,4037.626,2909.106,4022.063,2909.106z"></path><path fill="#15164d" d="M4022.063,2915.476h-132.775c-19.051,0-34.549-15.498-34.549-34.549v-83.138
							c0-19.051,15.498-34.549,34.549-34.549h132.775c19.05,0,34.548,15.498,34.548,34.549v83.138
							C4056.611,2899.978,4041.113,2915.476,4022.063,2915.476z M3889.288,2775.979c-12.026,0-21.811,9.784-21.811,21.811v83.138
							c0,12.026,9.784,21.811,21.811,21.811h132.775c12.025,0,21.81-9.784,21.81-21.811v-83.138c0-12.026-9.784-21.811-21.81-21.811
							H3889.288z"></path></g><g><path fill="#3e4178" d="M4271.333,2909.106h-132.775c-15.563,0-28.18-12.616-28.18-28.179v-83.138
							c0-15.563,12.617-28.179,28.18-28.179h132.775c15.563,0,28.179,12.616,28.179,28.179v83.138
							C4299.512,2896.49,4286.896,2909.106,4271.333,2909.106z"></path><path fill="#15164d" d="M4271.333,2915.476h-132.775c-19.051,0-34.549-15.498-34.549-34.549v-83.138
							c0-19.051,15.498-34.549,34.549-34.549h132.775c19.051,0,34.549,15.498,34.549,34.549v83.138
							C4305.882,2899.978,4290.384,2915.476,4271.333,2915.476z M4138.558,2775.979c-12.026,0-21.811,9.784-21.811,21.811v83.138
							c0,12.026,9.784,21.811,21.811,21.811h132.775c12.026,0,21.811-9.784,21.811-21.811v-83.138
							c0-12.026-9.784-21.811-21.811-21.811H4138.558z"></path></g></g></g></g></svg>