<svg xmlns="http://www.w3.org/2000/svg" viewBox="0 0 256 256" id="pancakeswap"><rect width="256" height="256" fill="#96e4ea" rx="128" ry="128"></rect><path fill="#5f3304" d="m120.39,90.45c-.03,2.86-.21,5.72-.31,8.59-.02.58-.03,1.16-.05,1.74,0,.21.06.31.27.28.07,0,.15,0,.22,0,5.15,0,10.3,0,15.45.01.43,0,.61-.17.74-.53.33-.95.23-1.92.09-2.88-.38-2.7-.35-5.42-.33-8.13.02-2.88.16-5.75.35-8.63.2-3.07.52-6.12.94-9.17.18-1.34.35-2.69.8-3.98.97-2.81,2.84-4.85,5.33-6.39,3.86-2.39,8.04-3.53,12.57-3.12,3.93.35,7.35,1.97,10.24,4.62,3.42,3.14,5.2,7.14,5.77,11.7.7,5.63.17,11.18-1.08,16.69-1.21,5.33-2.36,10.68-3.54,16.01-.07.3.02.42.28.54,5.16,2.4,9.85,5.51,14.14,9.24,3.81,3.32,7.23,6.99,10.05,11.19,3.35,5,5.38,10.51,6.16,16.47.9,6.92.47,13.76-1.36,20.49-1.52,5.62-4.3,10.56-8.19,14.9-3.04,3.39-6.66,5.98-10.74,7.97-2.77,1.35-5.48,2.82-8.27,4.12-3.49,1.63-7.08,2.99-10.79,3.99-4.45,1.21-8.97,2.05-13.52,2.8-3.61.59-7.23,1.08-10.87,1.39-4.04.35-8.09.69-12.15.55-3.39-.12-6.74-.59-10.06-1.25-3.25-.64-6.48-1.34-9.68-2.18-4.82-1.26-9.52-2.84-14.07-4.87-6.85-3.06-13.24-6.89-19.2-11.42-4.46-3.38-7.81-7.67-9.93-12.88-1.13-2.76-1.81-5.63-2.19-8.59-.45-3.51-.47-7.02-.17-10.54.21-2.47.71-4.89,1.25-7.31.95-4.31,2.06-8.58,3.53-12.74,1.9-5.38,5.4-9.47,10.21-12.55,4.92-3.15,10-6.02,15.2-8.69.32-.17.36-.32.28-.65-1.26-5.05-2.25-10.15-3.07-15.29-.5-3.11-.91-6.22-1.05-9.37-.15-3.37-.04-6.74.37-10.09.42-3.41,1.63-6.54,3.54-9.41,1.37-2.06,3.36-3.35,5.53-4.4,2.97-1.44,6.11-1.94,9.36-1.49,6,.82,10.53,3.85,13.58,9.12,2.69,4.63,4.14,9.6,4.28,14.96.07,2.7.12,5.4.12,8.1,0,.36,0,.72,0,1.07Zm73.6,59.42c.02-.87-.08-1.72-.17-2.58-.24-2.36-.69-4.69-1.41-6.95-2.08-6.54-5.73-12.1-10.59-16.89-2.44-2.4-5.14-4.49-7.99-6.39-2.63-1.74-5.36-3.28-8.22-4.62-1.53-.71-2.72-1.78-3.17-3.49-.28-1.08-.2-2.16.07-3.23,1.17-4.64,2.32-9.28,3.53-13.9.79-3.03,1.44-6.09,1.6-9.23.14-2.7.1-5.4-.36-8.08-.35-2.03-1-3.97-2.26-5.64-2.62-3.48-6.25-5.08-10.48-5.35-2.99-.19-5.7.78-8.14,2.49-2,1.4-3.2,3.27-3.49,5.73-.22,1.86-.45,3.72-.64,5.59-.23,2.28-.42,4.57-.46,6.86-.05,3.04-.17,6.08-.06,9.13.08,2.37-.02,4.75.1,7.12.05.91.02,1.82.08,2.73.11,1.79-.69,2.93-2.23,3.29-.78.18-1.58.19-2.36.1-2.4-.29-4.8-.43-7.22-.49-1.07-.03-2.15.03-3.22.04-1.55.02-3.1.12-4.65.23-2.02.15-4.02.06-6.01-.31-.41-.08-.72-.28-.91-.66-.41-.85-.68-1.74-.72-2.7-.05-1.39.17-2.77.31-4.14.29-2.86.44-5.73.5-8.61.05-2.61-.05-5.22-.24-7.82-.13-1.81-.26-3.63-.54-5.42-.74-4.66-2.82-8.55-6.5-11.58-2.6-2.15-5.49-3.22-8.88-2.88-1.91.19-3.67.75-5.23,1.89-2.02,1.49-3.6,3.32-4.18,5.84-.65,2.85-1.01,5.75-1.11,8.67-.08,2.43-.07,4.86.24,7.28.23,1.77.44,3.55.7,5.31.34,2.34.75,4.67,1.2,7,.49,2.5.95,5.01,1.72,7.44.32.99.72,1.95.82,3.01.13,1.44-.34,2.5-1.65,3.11-1.47.69-2.96,1.33-4.37,2.15-2.67,1.55-5.49,2.82-8.2,4.31-3.33,1.83-6.33,4.04-8.73,7.02-2.1,2.61-3.72,5.47-4.69,8.68-1.3,4.33-2.27,8.73-3.12,13.16-.04.25-.07.5-.11.75-.71,4.33-.61,8.64.21,12.94.53,2.79,1.37,5.47,2.75,7.98,1.25,2.28,2.83,4.3,4.76,6.03,2.36,2.11,4.94,3.95,7.55,5.72,2.92,1.98,5.94,3.79,9.05,5.44,1.85.98,3.73,1.88,5.66,2.7,2.42,1.03,4.9,1.9,7.41,2.66,2.37.73,4.78,1.34,7.2,1.9,2.01.46,4.04.86,6.08,1.21,1.34.23,2.68.48,4.03.67,1.77.25,3.54.39,5.32.5,2.81.17,5.61.14,8.41-.08,2.8-.21,5.58-.57,8.36-.94,4.23-.56,8.46-1.11,12.64-1.97,4.91-1,9.65-2.52,14.23-4.57,4.52-2.02,8.89-4.33,13.15-6.85,2.51-1.48,4.77-3.26,6.69-5.47,1.66-1.91,3.01-4.01,4.05-6.31.9-1.97,1.59-4.02,2.17-6.11.66-2.34,1.13-4.72,1.4-7.14.11-.99.2-1.97.27-2.96.08-1.12.12-2.23.07-3.34Z"></path><path fill="#cf884e" d="m62.65,147.1c.86-4.43,1.82-8.84,3.12-13.16.97-3.22,2.59-6.08,4.69-8.68,2.4-2.98,5.4-5.19,8.73-7.02,2.71-1.49,5.53-2.76,8.2-4.31,1.41-.82,2.9-1.46,4.37-2.15,1.3-.61,1.78-1.66,1.65-3.11-.1-1.06-.5-2.01-.82-3.01-.77-2.43-1.23-4.94-1.72-7.44-.45-2.32-.86-4.66-1.2-7-.26-1.77-.47-3.54-.7-5.31-.31-2.42-.33-4.85-.24-7.28.1-2.92.46-5.82,1.11-8.67.57-2.52,2.16-4.34,4.18-5.84,1.55-1.15,3.31-1.7,5.23-1.89,3.39-.34,6.28.73,8.88,2.88,3.67,3.04,5.76,6.92,6.5,11.58.28,1.8.41,3.61.54,5.42.19,2.6.29,5.21.24,7.82-.06,2.88-.21,5.75-.5,8.61-.14,1.38-.36,2.75-.31,4.14.04.96.31,1.85.72,2.7.18.38.5.58.91.66,1.99.37,3.99.46,6.01.31,1.54-.12,3.09-.21,4.65-.23,1.07-.01,2.15-.07,3.22-.04,2.41.06,4.82.2,7.22.49.78.1,1.58.09,2.36-.1,1.54-.36,2.34-1.5,2.23-3.29-.05-.91-.03-1.82-.08-2.73-.12-2.37-.02-4.75-.1-7.12-.1-3.04,0-6.09.06-9.13.04-2.29.24-4.58.46-6.86.18-1.87.42-3.73.64-5.59.29-2.46,1.49-4.33,3.49-5.73,2.44-1.71,5.15-2.68,8.14-2.49,4.23.27,7.86,1.87,10.48,5.35,1.25,1.67,1.91,3.6,2.26,5.64.45,2.67.5,5.38.36,8.08-.16,3.13-.81,6.19-1.6,9.23-1.2,4.63-2.36,9.27-3.53,13.9-.27,1.07-.36,2.15-.07,3.23.45,1.71,1.65,2.78,3.17,3.49,2.86,1.33,5.6,2.87,8.22,4.62,2.85,1.9,5.55,3.99,7.99,6.39,4.86,4.78,8.51,10.35,10.59,16.89.72,2.26,1.16,4.59,1.41,6.95.09.86.19,1.72.17,2.58-.32.52-.48,1.11-.71,1.68-1.51,3.66-3.51,7.05-5.93,10.18-1.64,2.13-3.49,4.07-5.47,5.89-1.96,1.8-4.06,3.41-6.25,4.92-3,2.07-6.21,3.78-9.52,5.31-3.31,1.53-6.73,2.74-10.23,3.73-3.75,1.06-7.57,1.81-11.45,2.29-1.89.23-3.79.45-5.69.49-3.33.06-6.65.08-9.98-.04-2.11-.08-4.23-.14-6.34-.29-1.74-.12-3.48-.2-5.21-.38-2.33-.24-4.67-.5-6.99-.86-3-.47-5.98-1.02-8.92-1.76-3.09-.78-6.13-1.73-9.1-2.9-3.43-1.34-6.69-3.01-9.78-5-3.09-2-5.91-4.32-8.45-7-1.21-1.28-2.36-2.61-3.41-4.02-3.22-4.29-5.66-9-7.47-14.04-.12-.32-.15-.7-.43-.95Zm97.56-2.88c0-1.1-.03-2.21-.09-3.31-.07-1.4-.23-2.79-.56-4.15-.6-2.44-2.05-4.15-4.49-4.82-2.49-.69-4.72-.06-6.62,1.68-1.83,1.67-2.43,3.85-2.46,6.22-.02,1.93.38,3.82.76,5.7.34,1.69.79,3.33,1.69,4.82,1.41,2.33,3.99,3.63,6.45,3.19,2.55-.45,4.18-1.95,4.9-4.44.46-1.6.43-3.24.42-4.88Zm-50.28.93c-.06-1.56-.08-3.15-.19-4.74-.1-1.41-.31-2.81-.77-4.16-1.12-3.28-4.59-4.97-7.96-3.96-3.35,1-5.13,3.82-5.31,7.15-.11,2.12.25,4.19.68,6.25.33,1.58.7,3.14,1.49,4.57,1.18,2.17,2.97,3.51,5.45,3.7,2.6.2,5.07-1.45,5.93-3.83.57-1.6.63-3.27.69-4.97Z"></path><path fill="#fadd8e" d="m62.65,147.1c.29.25.31.63.43.95,1.81,5.04,4.25,9.75,7.47,14.04,1.05,1.41,2.2,2.74,3.41,4.02,2.54,2.68,5.35,5.01,8.45,7,3.09,1.99,6.35,3.66,9.78,5,2.97,1.16,6.01,2.12,9.1,2.9,2.94.74,5.92,1.3,8.92,1.76,2.32.36,4.66.61,6.99.86,1.73.18,3.47.26,5.21.38,2.11.15,4.22.21,6.34.29,3.33.12,6.66.11,9.98.04,1.9-.04,3.79-.26,5.69-.49,3.88-.48,7.7-1.22,11.45-2.29,3.5-.99,6.93-2.2,10.23-3.73,3.31-1.53,6.52-3.24,9.52-5.31,2.18-1.51,4.29-3.12,6.25-4.92,1.98-1.82,3.83-3.76,5.47-5.89,2.41-3.13,4.41-6.51,5.93-10.18.23-.56.4-1.15.71-1.68.05,1.12.01,2.23-.07,3.34-.08.99-.16,1.98-.27,2.96-.27,2.42-.75,4.8-1.4,7.14-.59,2.09-1.28,4.14-2.17,6.11-1.04,2.29-2.39,4.39-4.05,6.31-1.92,2.22-4.18,3.99-6.69,5.47-4.26,2.52-8.63,4.83-13.15,6.85-4.58,2.04-9.32,3.56-14.23,4.57-4.18.85-8.41,1.41-12.64,1.97-2.78.37-5.56.73-8.36.94-2.8.21-5.6.24-8.41.08-1.78-.11-3.56-.26-5.32-.5-1.35-.19-2.69-.44-4.03-.67-2.04-.35-4.06-.75-6.08-1.21-2.42-.55-4.82-1.17-7.2-1.9-2.51-.77-4.99-1.64-7.41-2.66-1.92-.82-3.81-1.72-5.66-2.7-3.11-1.66-6.13-3.47-9.05-5.44-2.62-1.77-5.2-3.62-7.55-5.72-1.93-1.72-3.5-3.75-4.76-6.03-1.38-2.51-2.21-5.19-2.75-7.98-.82-4.3-.92-8.61-.21-12.94.04-.25.08-.5.11-.75Z"></path><path fill="#623201" d="M160.22 144.22c.01 1.64.04 3.28-.42 4.88-.71 2.49-2.34 3.99-4.9 4.44-2.46.44-5.05-.87-6.45-3.19-.9-1.49-1.35-3.14-1.69-4.82-.38-1.88-.78-3.77-.76-5.7.02-2.37.63-4.55 2.46-6.22 1.9-1.74 4.13-2.37 6.62-1.68 2.44.68 3.89 2.39 4.49 4.82.33 1.36.49 2.75.56 4.15.05 1.1.09 2.2.09 3.31zM109.94 145.15c-.07 1.71-.12 3.38-.69 4.97-.86 2.38-3.33 4.03-5.93 3.83-2.49-.19-4.27-1.53-5.45-3.7-.78-1.43-1.16-2.99-1.49-4.57-.43-2.06-.79-4.13-.68-6.25.18-3.33 1.96-6.16 5.31-7.15 3.37-1 6.84.68 7.96 3.96.46 1.35.66 2.75.77 4.16.12 1.59.13 3.19.19 4.74z"></path></svg>