<svg xmlns="http://www.w3.org/2000/svg" width="513" height="512" fill="none" viewBox="0 0 513 512" id="sushiswap-sushi"><g clip-path="url(#clip0_603_461)"><path fill="url(#paint0_linear_603_461)" d="M107.426 49.0667L504.226 320L406.093 465.067L9.29297 192L107.426 49.0667Z"></path><path fill="url(#paint1_linear_603_461)" d="M504.226 320C470.093 369.067 354.893 349.867 246.093 273.067C135.16 198.4 75.4263 98.1333 107.426 49.0667C141.56 0 256.76 19.2 365.56 96C476.493 168.533 536.226 270.933 504.226 320Z"></path><path fill="url(#paint2_linear_603_461)" d="M406.093 462.933C371.96 512 256.76 492.8 147.96 416C39.1598 339.2 -22.7069 241.067 11.4264 189.867C45.5598 140.8 160.76 160 269.56 236.8C378.36 313.6 438.093 413.867 406.093 462.933Z"></path><path fill="#0E0F23" d="M504.227 320L406.093 465.067C371.96 514.133 256.76 492.8 147.96 418.133C126.627 403.2 107.427 388.267 88.2266 371.2C103.16 369.067 122.36 360.533 141.56 339.2C175.693 302.933 192.76 294.4 207.693 296.533C222.627 296.533 239.693 311.467 267.427 347.733C295.16 384 333.56 394.667 357.027 375.467C359.16 373.333 361.293 373.333 363.427 371.2C382.627 356.267 389.027 349.867 425.293 281.6C433.827 264.533 463.693 236.8 504.227 249.6C514.893 277.333 514.893 300.8 504.227 320Z"></path><path fill="#fff" fill-rule="evenodd" d="M489.293 311.467C459.426 354.133 354.893 332.8 254.626 262.4C152.226 192 92.4931 102.4 122.36 59.7333C152.226 17.0667 256.76 38.4 357.026 108.8C457.293 179.2 517.026 268.8 489.293 311.467ZM395.426 247.467C380.493 268.8 329.293 258.133 278.093 224C229.026 189.867 199.16 145.067 214.093 123.733C229.026 102.4 280.226 113.067 331.426 147.2C380.493 181.333 410.36 226.133 395.426 247.467Z" clip-rule="evenodd"></path><path fill="#fff" d="M98.8932 98.1333C98.8932 96 96.7599 93.8667 94.6265 96 92.4932 98.1333 90.3599 98.1333 90.3599 100.267 92.4932 106.667 94.6265 110.933 94.6265 115.2 94.6265 117.333 96.7599 119.467 98.8932 117.333 101.027 117.333 103.16 115.2 101.027 113.067 101.027 108.8 101.027 104.533 98.8932 98.1333zM109.56 132.267C109.56 130.133 107.426 128 105.293 130.133 103.16 132.267 103.16 132.267 103.16 134.4 126.626 187.733 175.693 245.333 239.693 288 241.826 290.133 243.96 288 246.093 288 248.226 285.867 246.093 283.733 246.093 281.6 179.96 238.933 133.026 183.467 109.56 132.267zM367.693 341.333C365.56 341.333 363.426 341.333 363.426 343.467 363.426 345.6 363.426 347.733 365.56 347.733 371.96 349.867 380.493 352 386.893 354.133 389.026 354.133 391.16 354.133 391.16 352 391.16 349.867 391.16 347.733 389.026 347.733 382.626 345.6 374.093 343.467 367.693 341.333zM406.093 349.867C403.96 349.867 401.826 352 401.826 354.133 401.826 356.267 403.96 358.4 406.093 358.4 423.16 360.533 442.36 362.667 457.293 360.533 459.426 360.533 461.56 358.4 461.56 356.267 461.56 354.133 459.426 352 457.293 352 440.226 354.133 423.16 352 406.093 349.867z"></path></g><defs><linearGradient id="paint0_linear_603_461" x1="185.169" x2="263.859" y1="10.545" y2="280.757" gradientUnits="userSpaceOnUse"><stop stop-color="#03B8FF"></stop><stop offset="1" stop-color="#FA52A0"></stop></linearGradient><linearGradient id="paint1_linear_603_461" x1="249.971" x2="328.664" y1="-8.329" y2="261.886" gradientUnits="userSpaceOnUse"><stop stop-color="#03B8FF"></stop><stop offset="1" stop-color="#FA52A0"></stop></linearGradient><linearGradient id="paint2_linear_603_461" x1="120.568" x2="199.26" y1="29.357" y2="299.571" gradientUnits="userSpaceOnUse"><stop stop-color="#03B8FF"></stop><stop offset="1" stop-color="#FA52A0"></stop></linearGradient><clipPath id="clip0_603_461"><rect width="512" height="512" fill="#fff" transform="translate(.76)"></rect></clipPath></defs></svg>