<svg xmlns="http://www.w3.org/2000/svg" viewBox="0 0 2300 1300" id="business-team-working-on-startup-idea"><defs><linearGradient id="a" x1="232.86" x2="233.62" y1="607.69" y2="601.82" gradientTransform="rotate(-26.14 992.455 -809.758)" gradientUnits="userSpaceOnUse"><stop offset=".42" stop-color="#e6af92"></stop><stop offset="1" stop-color="#e6a392"></stop></linearGradient></defs><g style="isolation:isolate"><g data-name="Layer 1"><path fill="#fcd4ca" d="M299.14,761.9a14.91,14.91,0,0,1-3.45,2.27l-.33,10.47c7.5-4.5,21.64-11,21.64-11l-.51-6.07-3.76-8.08-12.28,1S301.42,759.69,299.14,761.9Z"></path><path fill="#fcd4ca" d="M304.43,765.35a7.5,7.5,0,0,1-.38-3.4l-.87,0s-53.43,16.63-59.55,16.81c-7.28.21-6.51,18,.45,20.09,6.59,1.94,53.6-25.2,63.76-30.63C307.27,766.22,305.14,767.32,304.43,765.35Z"></path><path fill="#80caff" d="M255.08,774.47,234,779.89l-33.78,12,27.53,17.32,1.41-.39,32.43-14.35,5.1-2.13C263.16,786.94,258.3,780.07,255.08,774.47Z"></path><ellipse cx="1146.12" cy="1119.82" fill="#fe6e75" rx="1061.67" ry="59.01"></ellipse><path fill="#0086ca" d="M721.11,1007.5c.74.5,1.56.18,2.33.23,1.18.07,2.36.06,3.54.08a.24.24,0,0,1-.16.31,29,29,0,0,1-6.11-.14,1.71,1.71,0,0,1-.47-.63c-.28-.86-.62-1.7-1-2.55-.14-.37-.38-.77,0-1.16.4-.83.48-1.16.53-.44.2-1.67.24-3.37.45-5.05q.64-5.28,1.52-10.51c0-.26,0-.53,0-.8.52-2.21.81-4.48,1.39-6.68.45-1.76.75-3.55,1.19-5.31a9.4,9.4,0,0,0,.56-1.7,34.08,34.08,0,0,1,2.16-5.53c.19-.36.32-.92.84-.75s.34.63.3,1c-.37,3.6-.73,7.2-1.16,10.79-.32,2.68-.76,5.35-1,8a9.36,9.36,0,0,0-.27,2,1.63,1.63,0,0,0-.16.53,129.09,129.09,0,0,1-2.77,13.18,32.42,32.42,0,0,1-1.5,3.95A2.09,2.09,0,0,0,721.11,1007.5Z"></path><path fill="#62cbfd" d="M719.27,1003.64c.14,1.28,1.06,2.31,1.13,3.62a2.16,2.16,0,0,1-1.87.23c-1.09-.61-1.31-1.82-1.82-2.79-.67-1.28-1.31-2.57-1.91-3.88-1.74-3.9-3.66-7.71-5.44-11.58-2.34-5.08-4.74-10.13-7.05-15.23-.28-.62-.65-1.2-.88-1.85-.88-2.07-1.87-4.09-2.81-6.13a5.12,5.12,0,0,1-.32-.85c-.07-.23-.14-.48.09-.62s.43,0,.6.17a17.84,17.84,0,0,1,2.18,2.5,12.87,12.87,0,0,0,1.15,1.41c1.22,2.05,2.53,4.05,3.68,6.15a59.34,59.34,0,0,1,2.82,5.57,9.84,9.84,0,0,0,.5.9c1.22,2.15,2,4.54,3.16,6.71.66,1.43,1.16,2.92,1.79,4.36,1.68,3.44,2.94,7.06,4.36,10.61.1.24.09.54.42.61Z"></path><path fill="#015288" d="M714.18 946.9a167.84 167.84 0 01-1.83-17.75c-.4-.93-.11-1.91-.19-2.86a2.31 2.31 0 011.13-1.74 38.83 38.83 0 016 13.56l0 0L721 942.8h0l1.08 4.64a190.14 190.14 0 014 20.89h0a254.75 254.75 0 013.63 26.39v4.57a41 41 0 01-1.45-8.44 84.43 84.43 0 00-1.2-10.29 136.46 136.46 0 01-2-14.5c-.94-3.63-1.66-7.3-2.4-11-.83-4.1-2.17-8.1-2.62-12.29-1-.85-.91-2-.9-3.18h0c-.92-2.3-1.78-4.61-2.76-6.87-.83-1.92-1.79-3.78-2.69-5.67-.77 3.69.23 7.08.48 10.53.35 4.95 1.11 9.87 1.54 14.82.42 4.71 1.61 9.33 1.61 14.08a1.74 1.74 0 01.11.18c.73 1.24.15 2.63.35 3.93h0l.44.46h0c.16.81.34 1.62.45 2.43.87 6.1 2.37 12.08 3.4 18.15a52.24 52.24 0 004.88 13.91c.36.74.67 1.37-.09 2a5.86 5.86 0 01-.81-1.08c-3.57-8-5.52-16.34-6.93-24.89a4.74 4.74 0 01-.49-2.77h0a11.2 11.2 0 01-.85-4.58h0c0-.26 0-.52-.07-.78a5.33 5.33 0 01-.48-2.81h0a4.72 4.72 0 01-.42-2.77h0a6 6 0 01-.48-3.21h0a6 6 0 01-.45-3.19 4.58 4.58 0 01-.42-2.75h0c0-.26 0-.52-.05-.78a6.75 6.75 0 01-.44-3.3c-.64-1-.42-2.12-.42-3.22l.42-.78c-1.51-1-.73-2.49-.9-3.78zM740.59 976.87h0a31.83 31.83 0 013.66-9.13h0c2.09-4.18 3.4-8.73 5.92-12.72h0c.46-1 .9-2.07 1.4-3.08 3.75-7.52 7.65-15 12.65-21.76a.41.41 0 01.13-.18c2.36-3.38 4.49-7 8.21-9.12.61-.64 1-1.62 2.13-1.67a2.18 2.18 0 01-.72 1.71h0q-3.86 8.46-7.69 16.91h0c-1.88 4.06-3.73 8.12-5.62 12.17q-10.39 22.2-20.81 44.4h0c-2.05 4.3-4 8.65-6.39 12.77l-1-.06c.61-1.13 1.37-2.15 2-3.3 1.64-3.14 2.81-6.54 4.87-9.46h0c.42-2.51 1.76-4.65 2.8-6.89 3.86-8.27 7.87-16.48 11.77-24.73 4-8.45 7.92-16.94 11.88-25.4h0c1.72-5 4.64-9.57 6.14-14.75a40.09 40.09 0 00-3.36 3.28c-1.44 1.49-2.22 3.57-4.14 4.63.2 1.12-.58 1.87-1.14 2.63a104.77 104.77 0 00-7.65 13.07c-1.66 3.11-3.26 6.26-4.89 9.39-2.25 4.35-3.85 9-6.38 13.23-.67 3-2.16 5.66-3.51 8.38a.39.39 0 01-.14.28c-2.71 6.88-5.38 13.78-8.21 20.61-.21.5.13 2.07-1.41 1.67.63-1.76 1.17-3.56 1.9-5.28C735.47 988.59 737.19 982.36 740.59 976.87z"></path><rect width="121.89" height="14.57" x="670.14" y="1004.73" fill="#fe6e75"></rect><polygon fill="#fe6e75" points="683.38 1011.03 778.77 1011.03 772.15 1083.9 687.36 1083.9 683.38 1011.03"></polygon><polygon points="713.9 1018.98 713.86 1018.98 735.44 1022.66 777.07 1029.75 778.06 1018.92 713.9 1018.98"></polygon><path fill="#fcd4ca" d="M1041.29,762.06c-7.91-24.62-36.54-81.38-36.54-81.38H995.6l-12.59,2s-.61,9.4.86,12c2.53,4.54,13.06,9.41,16.08,13.19,8.09,10.14,12.8,55.88,12.8,55.88l-12.13,8.15-11.93,7.26-10.4,7.47-25.06,11.57L941,799.5l-20.45,5c12.88,1.8,25.62,4.38,38.48,6.43l3.52.55c-.88-.17,2.75.22,3.84.27,3.07.16,6.17.24,9.23.58,2.64.29,5.3.61,7.92,1.06a23.64,23.64,0,0,1,11.64-.61C1012.84,790.25,1043.07,767.58,1041.29,762.06Z"></path><path fill="#fbd4ca" d="M904.23,801s-6.37,1.25-8.13.23c-30.58-17.77-59.25-29.89-60.13-30.47-2.78-1.83,4-47.31,4-47.31l4.88-3.16s16.37-13.71,12.3-17c-1.67-1.36-5.39.38-12.46-1.72-10.06-3-12.16,12.61-12.16,12.61s-26.52,48.9-22,66.05c4.15,15.7,49.65,34.88,49.65,34.88Z"></path><path fill="#fcd4ca" d="M814.29,1101.57l37.87,2.14c-3-7.5.93-9.42-2.75-16.9-10.89-1.28-19.54-.43-28.09-.49-7.41.65-10.6,2.22-11.75,4.2A20,20,0,0,1,814.29,1101.57Z"></path><path fill="#005387" d="M830.87,1085.17s-18.81,16.18-15.14,16.52c7.19.67-12.26-1.2-12.26-1.2s-20.1,3-27.62,2.23c-3.57-.38-6.32.31-6.5-1.34-.72-6.78,31.17-13.46,50.44-27.57C823.69,1071,830.87,1085.17,830.87,1085.17Z"></path><polygon fill="#dbdbdb" points="885.63 967.37 967.9 966.51 1020.01 1046.63 995.89 1104.77 835.67 1104.77 834.38 1070.74 864.74 1068.04 945.07 1051.36 885.63 967.37"></polygon><path fill="#fbd4ca" d="M987.26,1054.57s1,25.58-1,30.59c-.79,2,4.64,8.44,4.64,8.44s5,12.94,20,2.53c5.68-3.93,7.63-6.74,1.9-13.08-5.9-6.54-1.32-24.49-1.32-24.49Z"></path><path fill="#005387" d="M984,1083.47s13.93,12.93,21.72,12.24c9.49-.84,6.74-15.32,8.23-13.08,2.57,3.88,14.76,13.5,14.76,13.5a48.49,48.49,0,0,0,23,4.1c5.55-.35,1.16,7,1.16,7l-70.14-2.06Z"></path><polygon fill="#005387" points="1052.83 1107.26 982.69 1107.26 982.69 1105.2 1053.45 1105.01 1052.83 1107.26"></polygon><path fill="#80caff" d="M990,778.88l-39,16.91-12.57,2.42-2.73,1c-6.65-1.49-14.67-1.31-16.38-1.38,0,0-4.72,1-11,2.77l-50.84-22.31-8.36,37.91,24.7,31c.78,10.79,2,21.9,1.3,30.42C873.86,892,873,922,879,935.66c0,0,11.94,2.06,23.45,3.8a38.41,38.41,0,0,0-.61,4.62c13.26,1.63,30.84,3.21,45-12.33,2.07-4.51,4.13-9.63,6.19-15.17l6-10,13-42.8,3.29-12.13c4.17-11.18,8.5-21.32,13.07-29.07,3-5.16,7.73-9.09,12.28-14.3C997.13,798.11,993.61,789,990,778.88Z"></path><path d="M873.14,846.16l-.07.1,2.19,14.41c.13-1.85,4.58-8.06,5.31-10.6C878.07,848.81,875.6,847.51,873.14,846.16Z"></path><path fill="#fcd4ca" d="M944,752.29c-2-5.58-8.12-15.31-11.33-7.27-1,2.59-2.88,3.23-15,6.44-.86.31-14.82,12.88-13.06,16.49,2.56,5.18,4.39,11,6.8,10.89.59,0,2.25,7.61,2.25,7.61l-5.36,14.88s5.36,8,20.27,8.66c7.9.34,7.64-7.23,7.64-7.23s2-11.2,4.08-11.32C951,790.8,946.12,758.25,944,752.29Z"></path><path fill="url(#a)" d="M924.09,785.86c-1.29-.84,12.58,14,12.58,14s2.06-6.87,3.37-8.45C940.18,791.28,934.15,792.48,924.09,785.86Z"></path><path fill="#f2f2f2" d="M946.79,933.35s105.48-10.13,116.3,8.61c6.46,11.2-1.73,33.6-1.73,33.6l-46.51,107.67-38.83.18,31.5-98.38s-102.94,14.65-120.59-6.89c-10.82-13.19-11.8-54.7-11.8-54.7s25,10,44.86,9.9c16.4-.09,31.28-10.33,31.28-10.33Z"></path><path d="M913.17,789.16l-5.63-8.68-2.92-8.43-1.26-2.51s-.42-15.19.17-16.57c1.3-3.07,7.61-7.44,7.61-7.44s6.41-6.51,9.81-7.78a23.61,23.61,0,0,1,5.24-1.53c1.93-.21,6.21.49,8.12.17,2.26-.37,5.6,4.91,5.6,4.91l4.93,4.72s2,1.53,2.2,2.3c.42,1.83-2.25,7.18-2.25,7.18s-2.28-4.6-4.24-4c-5.23,1.51-8-5.29-10.47-3.06a18.69,18.69,0,0,0-2,2.85s-6.05,2.47-7.23,4.2c-2.15,3.15-2.3,15.08-2.3,15.08s-4.84-2-6.18-1.15c-.88.54-1.38,3-1.15,4,.33,1.45,3,5.14,3,5.14l1.58,1.16.58,3.44-2.16,3.35"></path><polyline fill="none" stroke="#000" stroke-miterlimit="10" stroke-width="3" points="272.77 734.51 353.71 790.5 388.11 807.69 475.93 750.82 615.68 652.7 767.32 732.98 966.54 682.43 1219.22 706.28 1540.4 756.77 1652.14 689.74 2114.3 656.15 2179.68 575.39"></polyline><path d="M102.36,1083.55c-6.32,1.22-15.85,16.06-15.85,16.06l-1.19,3.68s17.58,5.77,19,5.25l1.44-.52,12.29,4.43s30,1.36,30.75-4.94c.44-3.38-11.66-4.13-15.44-5.69-4.06-1.67-13.16-10.2-13.16-10.2S108.07,1082.45,102.36,1083.55Z"></path><path fill="#fee227" d="M229.46,955.32a7.51,7.51,0,0,1-.47-.68c-1.34-2.13-1.34-4.17-1.06-6.56l.3-2.61c0-.41.18-1.8.21-2.15.18-2,9-2.75,9.1-4.71.29-4.13,2.57-43.43,2.69-47.57.11-3.53-18.89,1.63-18.88-1.9L186.4,914.26s-12.83,23.13-6,37.86c6,13-5.94,59.68-17.41,68.91-17.32,13.94-64.09,61.49-64.09,61.49s20.68,12.39,25.19,7.6c4.76-5,74-57.1,74-57.1l27.12-57.32,1.09.83c-.08-.5-.15-1-.19-1.5-.39-4.48,1-8.94,2-13.24C228.65,959.64,229.08,957.49,229.46,955.32Z"></path><path fill="#80caff" d="M189,882.89l-8.3,20.18,59.53-1.75,1.63-1.73L241,885.28l.3-26,.47-8.19.72-23.84L237.8,800l-24-5.69-15.13-6.67L189.12,789l-10.29,8.7s-5,19.92-4.69,25.87C174.87,838.87,189,882.89,189,882.89Z"></path><polygon points="242.5 827.63 208.16 832.55 208.55 833.97 242.15 839.33 242.5 827.74 242.5 827.63"></polygon><path fill="none" stroke="#000" stroke-miterlimit="10" d="M185.82,962.34c10.62,11.83,22.35,15.53,34.27,24"></path><path fill="#ffaf3f" d="M225.92,731.77h.14l.1-1.6Z"></path><path d="M243.68,767.05s-2.14-7.29-2.34-9.8c-.29-3.63.84-11.23-.63-14.57-1.72-3.88-12.07-12-12.07-12s-7.32.14-8.93,0l-2.1,58s10,4.85,13.49,4.31c2.55-.39,8.44-6,8.44-6s4.79,2.32,6.81,2a7.12,7.12,0,0,0,5-4.65C252.6,779.88,243.68,767.05,243.68,767.05Z"></path><path fill="#fcd4ca" d="M231.91 775s5.06-13 2.24-19.77c-2.55-6.15-3.41-12.64-5.35-15a51.72 51.72 0 00-5.05-4.08l-18.09 9.36-6.92 37.19 1.28 6.66c1.78-.9 4.7 3.73 6.82 4.12 2.73.51 10.26.52 11.1.07a12.93 12.93 0 011.2-.54l3.08-13.66S226.92 779.76 231.91 775zM216.76 812.75A58 58 0 01206 815.6l15.72 1.62-.63-3.74C219.65 813.25 218.2 813 216.76 812.75z"></path><path d="M200.3,728.88c-4.57,1.57-13.29,7.25-15.48,11.55-1.65,3.24-1.63,14.43-1.63,14.43s-7.56,7.21-8.95,10.33c-3.13,7.07-3.28,27.25.3,30.93,3,3.14,17.26-4.21,17.26-4.21l6.57-.19,7.34,5.12c7.34,5.13,7.8-.23,7.8-.23s7-24.89-4.29-29.6c-2.58-1.08-3.93-7.45-4-8.8-.11-3.44,4.94-.44,4.94-.44s-.95-9,.48-11.52c1.61-2.83,11-6.57,12.62-9.4,1.22-2.15,3.65-4.07,2.34-6.25C222.81,725.93,204.74,727.35,200.3,728.88Z"></path><path fill="none" stroke="#000" stroke-miterlimit="10" d="M238 804.17a26.2 26.2 0 00-7.49-6.15M222.21 779.51a3.65 3.65 0 01-2.36-.16"></path><path d="M301.1,821.61c.17,5.79-1.15,10.52-3,10.57s-7.82-4.7-8-10.48-.09-12.35,1.71-12.41S300.93,815.83,301.1,821.61Z"></path><path fill="#fcd4ca" d="M359.53,802.75c-1.19-.14-2.14-.37-6.92.18-12.06,1.83-52.87,7.94-58,7.32-7.23-.86-9.1,16.88-2.51,19.94,6.34,2.95,56.73-14.87,66.22-18.27-.6-2.6,2.49-6.5,2-9.12C360,802.79,359.78,802.78,359.53,802.75Z"></path><path fill="#80caff" d="M205,833.75l92.64-1.56s-5.3-8.21-5.42-12.26c-.13-4.37-.39-10.64-.39-10.64L227,804.51s-28.08-9.39-35-4c-4.35,3.42-6,17.44-2.81,22C193.08,827.94,205,833.75,205,833.75Z"></path><path fill="#fcd4ca" d="M342.69,810.5s23.11-12.22,25.53-13.8a41,41,0,0,0,4.77-4.12c.73-.78,1.4-.66,1.72-.16.88,1.35-4.58,8.33-4.64,8.6,0,0,9.23-3.3,10.61-2.29,1.94,1.44,1.72-.26,1.66,2.11s-.53,5.65-.32,5.88S379.6,811,379.6,811c-.05.52-4,2-4.48,2.33L369,814.59c-.73.09-13.21,0-14-.84l-5.43.68C349.55,811.3,342.81,813.6,342.69,810.5Z"></path><path fill-rule="evenodd" d="M288,1112.87c5.26-1.67,23.52,2.51,31.22,1.9,23.39-2,12.91-7.4,1.92-8.08-15.83,2.43-29.48-5.8-44.49-9.17C272.89,1115.23,283.92,1112.62,288,1112.87Z"></path><path d="M294.83,1066.6l-11.49-2.77c-.27,3.06-6.69,33.69-6.69,33.69,28.86,10.46,28.45,9.27,38.31,10.58,9.4,1.21,11.51-.2,11.51-.2S285.05,1096.29,294.83,1066.6Z"></path><path fill="#fee227" d="M226.05,925.43l2.35-23.31-43.53-2.43-.71-1.32S169.59,933,173.38,944.16c9.38,27.63,96,69.65,96,69.65l6.09,74.32,22.84-6.83s7.74-61.3.35-79.85C289,977,226.05,925.43,226.05,925.43Z"></path><path fill="#fbd4ca" d="M521.2,1129.11s-3.29,19.44-5.57,22.9c-.91,1.39,2.17,7.09,2.17,7.09s1.75,10.55,14.7,5.07c4.9-2.07,6.81-3.87,3.5-9.55-3.42-5.86,2.86-18.67,2.86-18.67Z"></path><path fill="#005387" d="M514.15,1150.37s8.46,11.94,14.44,12.65c7.29.86,7.5-10.48,8.27-8.56,1.33,3.33,11.77,12,11.77,12a33,33,0,0,0,16.62,7.58c4.25.61-.23,5.48-.23,5.48l-55.25-13Z"></path><polygon fill="#005387" points="565.02 1179.57 509.44 1168.1 509.77 1166.55 565.84 1177.97 565.02 1179.57"></polygon><path fill="#fbd4ca" d="M625.7,1130.41s.34,19.71-1.26,23.53c-.65,1.54,3.43,6.57,3.43,6.57s3.65,10,15.38,2.29c4.43-2.93,6-5.06,1.68-10s-.61-18.88-.61-18.88Z"></path><path fill="#005387" d="M622.68,1152.6s10.51,10.19,16.52,9.79c7.32-.5,5.44-11.68,6.55-9.93,1.92,3,13,9.64,13,9.64a29.86,29.86,0,0,0,17.51,4.91c4.28-.18.77,5.43.77,5.43l-55.67-3.13Z"></path><polygon fill="#005387" points="677.01 1172.44 621.31 1170.89 621.34 1169.31 677.53 1170.72 677.01 1172.44"></polygon><polygon fill="#62cbfd" points="548.71 916.4 542.94 1004.95 517.37 1144.19 546.82 1153.82 553.31 1111.02 569.79 1042.83 576.32 1017.22 593.76 952.01 611.73 1010.91 618.25 1153.31 643.68 1149.86 650.75 1014.91 633.04 892.28 548.71 916.4"></polygon><path d="M580,941.12c-.58,2.5-1.13,5-1.67,7.51,0,.08,0,.47-.05,1.09a20.32,20.32,0,0,1,6.87,14.47c.21,6,.4,12.06.5,18.19l6.86-25.65c.84-3,1.29-3.48,1.26-4.72C589.21,948.38,583.59,945.76,580,941.12Z"></path><path fill="#fcd4ca" d="M554.28,763.77,580.7,750l5.51,4,35.34-18.8,2.17,2L635.57,730l12-8.14s-5.31-44.64-13.55-54.43c-3.08-3.65-17-3.14-17-3.14l-.25-18.55,12.53-4.82,9.16-.13s29.42,55,37.66,79c2.13,6.16-37.55,34.94-52.15,59.9-16.9,28.91,29,89.28,14.46,114-2.68,4.54-20.57,3.78-20.57,3.78l-34,22.52s-47.27.91-43.65-9.81c11-32.63-1.12-83.49-1.12-83.49l-16.55-38Z"></path><path fill="#fee227" d="M624,779.65c3-5.08,7.62-9,12.11-14.15-3.71-9.88-7.35-18.72-11.08-28.56l-2.35-5L586.21,754l-5.38-4.53-26.55,14.27-31.74,24.81,9.2,24.59,7.35,13.46s12.13,50.86,1.12,83.49c-3.62,10.72,43.65,9.81,43.65,9.81l34-22.52s17.89.76,20.57-3.78C653,868.93,607.12,808.56,624,779.65Z"></path><path d="M622.39,783c-9.93,10.12-13.18,12.56-21.82,11.77.69,1.19,6,9.53,8.21,12.38l1.3,1.67c.89,1,1.8,2,2.74,3A89.43,89.43,0,0,0,620.3,819c.9.75,1.82,1.49,2.74,2.21l1.14.77,1,.62C620.73,807.79,618.14,793.7,622.39,783Z"></path><polygon fill="#fcd4ca" points="539.77 720.05 560.58 699.28 574.62 711 576.31 716.77 579.93 719.02 584.82 727.7 576.19 745.78 577.42 751.42 555.48 762.52 536.93 735.18 539.77 720.05"></polygon><path fill="#261f48" d="M548.52,752.27s24.23-11.24,22.75-21.49c-.24-1.64-5.26-4.2-5.67-6-.8-3.51,4.55-6.45,6.57-2.87,1.32,2.34,2.41,10.73,2.41,10.73s.51,4.46.48,6.24c0,2.31-.74,8.07,1.26,9.18,0,0,15.95-3,15.16-9.51-.66-5.56-6.91-12.7-6.91-12.7s-.79,4.73-1.31,5.41-3.13-.07-3.13-.07c-2.65-9.57-7.49-14.71-10-15.65-1.35-.51-2-5.37-3.4-6.75-1.08-1-4.27-1.49-4.27-1.49s-.53-6.64-2-9.57c-1.56-3.2-6.07-5.22-14-1.84-5.66,2.42-17.41,11.28-19.38,17.2-1.31,3.92,3.43,4.16,2.33,6.39a52.14,52.14,0,0,1-2.84,5.76c-3,4.43-1.57,11.18.33,14.21C530.26,744.71,548.52,752.27,548.52,752.27Z"></path><path fill="#fff" d="M549.41,767.57l22-11.4,13.9-3.62s-5.12-5.09-7.77-5.16c-6.88-.18-25.81,9.66-25.81,9.66Z"></path><path fill="#fcd4ca" d="M1697.91 1119.05l3.73-7.77c4 2.4 7.84 4.91 11.37 7.11zM1655 1120.42s-5.61 18.92-4.29 23.88c.53 2-5.3 7.48-5.3 7.48s-6.15 11.69-19.23.23c-4.94-4.33-6.49-7.2-.39-12.58 6.3-5.55 7.75-21.49 7.75-21.49z"></path><path fill="#1586c8" d="M1653.09,1143s-14.58,10.73-21.88,9.23c-8.89-1.83-4.72-15.22-6.37-13.26-2.86,3.39-15.43,11.17-15.43,11.17a46.07,46.07,0,0,1-22.19,1.4c-5.23-.94-1.86,6.52-1.86,6.52l66.58,5.63Z"></path><polygon fill="#005288" points="1585.36 1158.01 1651.72 1165.59 1651.94 1163.64 1585.01 1155.82 1585.36 1158.01"></polygon><path fill="#005288" d="M1654.25,1130.85a13.63,13.63,0,0,1-11.31,2.83c-15.54-1-12.06-14.45-12.06-14.45l13-219.21,51.4,5.32a480.6,480.6,0,0,1-7,58.85C1679.51,1012,1662.26,1093.81,1654.25,1130.85Z"></path><path fill="#fcd4ca" d="M1700.79,1106.69s-1.83-4,2.09-3.23c1.58.33,19.83,15.6,19.83,15.6s1.6,6-5.76,14.06c-1.66,1.81-8.44,6.94-9,3-.87-6-14.85-17.06-14.85-17.06Z"></path><polygon fill="#005288" points="1693.13 1170.4 1713.83 1164.51 1732.86 1122.45 1730.19 1120.13 1710.9 1161.39 1692.03 1167.76 1693.13 1170.4"></polygon><path fill="#1586c8" d="M1720.22,1114.12s-1.62,8.64-4.93,14c-2.8,4.54-8.89,5.92-8.89,5.92l-1.86,20.38-12.72,12.64s.7,3.46,1.33,3c5.16-4.11,17.25-5.89,19.67-10.4,6.09-11.35,18.52-38.76,18.52-38.76Z"></path><path d="M1653.35,1040.52c-.23,3.17-.4,6.33-.5,9.5l-1-9.78A4.91,4.91,0,0,0,1653.35,1040.52Z" style="mix-blend-mode:multiply" fill="#005288" opacity=".2"></path><path d="M1673.08,920.8a.24.24,0,0,0,0,.08,16.09,16.09,0,0,0-2.33,9l10.33,12.6c.2,4.51-28,57.7-41.71,76.39-2.87,3.91-2.78,5-2.71,3.51l-9.88-99.08Z" style="mix-blend-mode:multiply"></path><path fill="#005288" d="M1583.31,1036.67c17.93-63,45.7-141.86,45.7-141.86l32-1.28s46.09,10.64,21.68,50c-12.73,20.56-53.08,86.63-53.08,86.63l47,48.09,37.87,26.75c6.21,10-13.69,22.62-21.81,25.73-1.39.54-8.92-4.2-18.16-10.62l-2,.09C1635,1095,1578.49,1053.62,1583.31,1036.67Z"></path><path d="M1650.69,735l.67-10.91s9.13-13.16,8.81-18.2c-.18-2.68-5.88-9-5.88-9s-.31-5.3-2.15-7.16c-5.79-5.88-20.43-1-25.76-4.8-11-7.87-16,1.37-17.2,5-1,2.9,1.81,12.1,1.81,12.1l37.08,37.33Z"></path><path fill="#fcd4ca" d="M1613,698.89c2.8-2,11.29,3.86,11.74,6.16.88,4.49,9.31,15.76,9.31,15.76s1-5.37,3.93-6.4c3.4-1.18,2.72,6.56,1.73,8.68a13.62,13.62,0,0,1-3.1,4.06l12.46,10.11-.09,8.63-24.58,6.5-3.64-11.46s-10.8.47-12.78-2.09c-5.89-7.67,3.81-38.49,3.81-38.49Z"></path><path d="M1636.61,727.15l12.46,10.11-.09,8.63-24.58,6.5L1621,741.57C1628.46,739.78,1634,738.92,1636.61,727.15Z" style="mix-blend-mode:multiply" fill="#fcd4ca" opacity=".48"></path><path fill="#fff" d="M1621.91,755.62l29-14.63s-4.1-6.4-8.47-3.17C1617.33,756.36,1621.91,755.62,1621.91,755.62Z"></path><path fill="#1586c8" d="M1692.63,889.84c-1.31-3.51-3-8.77-4.88-14.74-1-27.05-2-79.59-2.15-81.32-2.51-37.14-35.17-53.66-35.17-53.66-2.78.23-25.41,11.56-27.74,14.59-4.93,6.41-3.78,16.27-4.73,25.22-1.9,17.81-1.22,74.28,2.11,142.13,0,0,17,.81,27.79,1.73,17.94-2.36,25.11-9,25.11-9S1704.4,921.38,1692.63,889.84Z"></path><path d="M1646.1,789.32,1624,833.43c-3.51-4.39-3.4-3.07-3.51-7.7l21.07-44.05Z"></path><path fill="#fcd4ca" d="M1600.44,829.78c-22.59-16.21-76.12-60.51-76.12-60.51l-7.44-19.18,7.54-8.81,19.43,6.26s-3.45,11.63-.57,16c7.7,11.63,53,31.52,53,31.52l12.35-9.72,10.15-8.78c6.82,7.46,14.23,14.6,21.67,21.59C1621.91,818.07,1604.83,832.93,1600.44,829.78Z"></path><path fill="#1586c8" d="M1598,789.37,1620,833.53s37.12-52.16,33.81-65.91c-1.2-5-8.87-22-13.94-21.1C1627.48,748.75,1598,789.37,1598,789.37Z"></path><path fill="#fcd4ca" d="M1216.67,775c-4.14-12.18-9.05-6-21.53-54.43-.06-5.82-.14-14.29,0-15.64a30.33,30.33,0,0,1,1-4.52c.24-.73-.07-1.12-.51-1.16-1.16-.08-3.73,5.87-3.88,6s-.37-4.18-1.51-4.7c-1.6-.78-4.52-2.43-6-1.56s-2.46,2.9-2.67,2.86-.77,1.5-.77,1.5c-.33.2.06.14-.47,1l3.08,6.37c.14.27,1.58,2.86,3,5.15,0,.06,1.32,7,3.35,16,3.46,27.29,8.19,60.15,24.15,65.82,27.45,9.74,50.75-13.65,27.57-15.95C1243.57,774.73,1247.42,757.63,1216.67,775Z"></path><path d="M1209.6,762.36c-8.52-15.57-18-30.17.19,18.08,1.15,3,4.46-3.67,6.88-5.51C1215,769.86,1212.34,767.12,1209.6,762.36Z" style="mix-blend-mode:multiply" fill="#fcd4ca" opacity=".23"></path><path fill="#fcd4ca" d="M1272.81,1108.66c-.38,11.33,5.92,16.75,2.31,21.82-1.69,2.37-10.09,6.2-13.95,2.9-4.42-3.75-1.73-15.92-2.82-25.37Z"></path><path fill="#040e31" d="M1264.66,1123c10.41-1.39,9.67-5.3,11.41-2.18,2.51,8.15,3.12,16.8-1.54,17.11-50.53,3.36-66,6.65-16.61-17.25C1257.92,1120.68,1254.08,1123.59,1264.66,1123Z"></path><path fill="#fcd4ca" d="M1370.1,1101.56c-.07,11.34,6.4,16.57,2.93,21.75-1.61,2.42-9.91,6.49-13.86,3.3-4.53-3.62-2.19-15.87-3.55-25.27Z"></path><path fill="#040e31" d="M1363.64,1115.39c10.35-1.7,8.23-4.83,10.07-1.77,2.74,8.07,5.38,12.77.81,13.74-35.14,7.46-67.43,15.22-19-13.35C1355.56,1114,1353.07,1116.29,1363.64,1115.39Z"></path><path fill="#80caff" d="M1314.17,847.47l-50.09,3.73s-11.83,26.69-13.54,37.61c-8.94,57,3.26,230.57,3.26,230.57l23.92-1.81s7.73-59.93,8.7-81.94c.41-9.05-4.88-35.89-4.88-35.89L1293,940.47l60.36,171.3,21.2-2.91s-20.26-93.6-33.16-115.1c-3.27-5.44,0-96.23-11.43-125.62C1327.58,862.09,1314.17,847.47,1314.17,847.47Z"></path><path fill="#fcd4ca" d="M1268.56,691.7s-7.14,29.77-4.41,35.07c1.27,2.47,9,3.38,9,3.38l-.48,15.94,19.06-2.57,4.65-28.7Z"></path><path fill="#fe6e75" d="M1305,748.52c-6.11-3-29.74-9.12-39.38-6.55-2,.52-6.67,4.84-6.67,4.84C1245.15,749,1225,770,1225,770s3.45,25.82,10.51,28.81c3.65,1.53,14.94-5.9,15.3-4.21,2.87,13.51,3,6.11,6.84,24,3.95,18.35-12,62.85-15.21,94.55-1.29,12.84,114.2-8.87,87.51-45-2.71-3.67-6.43-42.79-6-47.06C1323.88,821.08,1325.88,758.72,1305,748.52Z"></path><path fill="#040e31" d="M1322.32,739.48a203.74,203.74,0,0,0-7.46-32.31v0c-.67-12.94-19.85-33.4-47.42-21-6.53,2.93,9.09,19.58,10.63,26.57,1.42,6.39-5.06,19.31-4.14,26-.33,9.49,9.37,28.83,18,36.11,5.82,4.87-21.76,6.7-17,25.71,1,4.16,7.7,19.6,12.52,24,34.33,31.77,48.85-6.83,50.23-25.12C1338.25,792.66,1323.38,746.26,1322.32,739.48Z"></path><path d="M1250.71,794.45a.36.36,0,0,1,.08.15c2,9.35,2.66,8.69,4.16,13.31l8.74-18.46Z"></path><polygon fill="#040e31" points="1292.96 940.47 1302.8 924.73 1291.35 948.78 1292.96 940.47"></polygon><path fill="#fcd4ca" d="M1275.77,715.05c1.63-.56,7.41-3.59,5.32,1.25a15.09,15.09,0,0,1-2.69,4.25c-.88,1-2.69,1.4-3.59,2.16"></path><path d="M1279,713.81l.45-.67L1262.63,705c.43-2.31,2.74-2.69,3.75-2.74l.08-.81c-1,0-4.31.41-4.69,3.69-.29,2.46.12,4.36,1.22,5.67a5.37,5.37,0,0,0,1.62,1.18l.09-.84a3.74,3.74,0,0,1-1.09-.87,6.11,6.11,0,0,1-1.07-4.36Z"></path><path fill="#fcd4ca" d="M2005.43,706.9a10.44,10.44,0,0,0-4.83-6.06,5.52,5.52,0,0,0-1.56-.58s-5.61,18.75-7.46,15.92c-1.59-2.45-3.4-3.18-4.95-.47-.75,1.32.24,6.91,1.42,8s-4.22,7.38-4.83,8.39a27.86,27.86,0,0,1-3.16,3.67l-15,13.55,10.73,0,13.74,0,4.65-16.95s7.56,3.39,9.21.81C2007.87,726.14,2008.1,714.31,2005.43,706.9Z"></path><path d="M2041.34,738.79c10.42,24.44,6.88,37.61,6.88,37.61l-13.4-12.19,2.75-26.35"></path><path fill="#fcd4ca" d="M1983.2,953.18l52.7-14.34s12.28,40.21,3.89,67.26c-10.06,32.41-58.92,122.26-58.92,122.26l10.57,17.77-20.58-15.63s7.73-41.43,9.46-58.09c3.73-35.92,22.78-83.73,22.78-83.73Z"></path><path d="M1993.45,1016c7-3.92,5.79-18.42,27.16-17.88-3.18-2.33-6.39-4.6-9.71-6.67-2.67-1.66-7.8-2.8-7.8-2.8S1998.55,1000.15,1993.45,1016Z"></path><path fill="#fcd4ca" d="M1926.41,928.2l-4.92,19.9s-44.82-38.39-62.25-52c-8.87-6.92-28.67-34.7-28.67-34.7l-31.09-12.34,29.9,29.74s51.88,92.41,81,110.33c7.15,4.39,27.65,4.59,33.54,1.15,13-7.58,29.67-52.26,29.67-52.26Z"></path><path fill="#015288" d="M1959.24,839.43c10.57-5.17,46.78,5.27,46.78,5.27s-2.94,8.09,7.28,48c3.82,14.94,27.46,58.81,27.46,58.81s-32.1,19.7-52.15,11.32c-3.68-1.54-10.94-19.5-17.43-16.11-17.28,9-49.22,1.09-49.73-11C1920.13,903.38,1936,850.79,1959.24,839.43Z"></path><path fill="#0086ca" d="M2013.3,892.69c-10.22-39.9-7.28-48-7.28-48s-21.38-6.16-36.08-6.66c-1.9,2.15-4.6,3.75-5.81,6.37-31.71,68.63,4.69,98.05,4.2,97.75.67.5,1.35,1,2.05,1.44a13.29,13.29,0,0,1,3.17,2.76c5.82,1,11.82,15.11,15.06,16.46,20.05,8.38,52.15-11.32,52.15-11.32S2017.12,907.63,2013.3,892.69Z"></path><path fill="#fbd4ca" d="M1992.44,749.27S2049.87,736,2063,735.91c5.64,0,35.56-69.72,35.56-69.72l5.32-16s9.22,7.44,7.64,12.71c-.81,2.69-7.57,12.7-7.57,12.7s-10.34,57.07-23,70.63c-11.77,12.56-63.91,25.58-63.91,25.58Z"></path><path d="M1978.27 1133.72c-7.61-4.45-5.76-7.23-8.13-5.39-4.58 5.5-7.87 12-4.35 13.76 38 19 49 26.56 18.45-8C1984.24 1134.12 1986.28 1137.62 1978.27 1133.72zM1822.85 859.62c8.59 2 7.65 5.22 9.36 2.75 2.76-6.6 4-13.78.1-14.42-42-6.9-61.22-11.6-21.86 12.37C1810.45 860.32 1814.05 858.27 1822.85 859.62z"></path><path fill="#80caff" d="M2047.08,773.59c-17-16-10.46-30.52-9.51-35.73,0,0-2.68.61-6.86,1.44-11.49,2.26-34.27,6.14-43.93,3.4-10.52-3-16.73-.69-19.9,1.42a11.85,11.85,0,0,1-5.75,7.15c-8.76,5.11-21.26,39.55-21.26,39.55s2.43,44.8,12.19,54.93c9.36,9.72,30.6,8,54-1,5-1.92,8.56-52.26,10-59.74C2017,780.25,2055.43,781.43,2047.08,773.59Z"></path><path d="M2007.67 792.54c3.1 3.79 3.83 8.74 6 12.67 1-9.43 1.84-17.58 2.36-20.25.08-.39.5-.73 1-1.06-5.18-.57-8.15 3.58-19.36-2.12C1999.1 786.11 2004.57 788.75 2007.67 792.54zM1923.32 773c1.84 6.88-.52 12.64-4 17.92-5.28 4.39-8.83 17.91 5.1 28.25 5.19 3.85 44.79 7.47 49.47-21.9.55-3.41 1.6-14.58 1.2-16.73-5.23-19 2.19-33.72 17.52-36.85-9.55-9.07-6.75-11.52-.36-15.66 24.42-10.56 7.16-57.07-8.93-42.63-19.25-4.79-32.1 4.2-33.84 14.28-1.82 10.63-1.07 25.77-12.81 24.94C1899.73 726.86 1920.91 769.76 1923.32 773z"></path><polygon fill="#fee227" points="2215.55 530.32 2149.04 551.87 2206.06 602.03 2215.55 530.32"></polygon><path fill="#015288" d="M424 543.2c-3 4.27-5.84 8.61-8.53 12.88l1.09.69c2.68-4.26 5.53-8.58 8.49-12.84zM463.32 495.62c-3.57 3.69-7.12 7.49-10.54 11.3l1 .86c3.41-3.8 6.94-7.59 10.5-11.26zM442.7 518.62c-3.29 4-6.53 8-9.61 12.1l1 .78c3.07-4 6.29-8.1 9.58-12.06zM384 657.44l-1.28.09a82.07 82.07 0 002.52 15.28l1.24-.33A82 82 0 01384 657.44zM485.63 474.29c-3.82 3.38-7.64 6.89-11.36 10.45l.89.92c3.7-3.53 7.51-7 11.33-10.41zM395.39 597.7l-1.19-.49c-2 4.91-3.73 9.81-5.2 14.56l1.22.38C391.68 607.44 393.43 602.57 395.39 597.7zM408.72 570l-1.13-.62c-2.55 4.58-4.95 9.19-7.13 13.7l1.15.56C403.78 579.15 406.17 574.56 408.72 570zM386.36 627l-1.25-.26a126.79 126.79 0 00-2.23 15.31l1.28.11A126 126 0 01386.36 627zM652.47 412.79a78.45 78.45 0 00-15-3.85l-.19 1.27A77 77 0 01652 414zM509.58 454.79c-4.08 3-8.16 6.23-12.17 9.5l.81 1c4-3.26 8.06-6.44 12.12-9.47zM677.54 430.28l.9-.91a73.51 73.51 0 00-12.09-9.69l-.69 1.08A73.81 73.81 0 01677.54 430.28zM622 407.91a113.87 113.87 0 00-15.42 1.32l.19 1.26a116.43 116.43 0 0115.25-1.3zM535.14 437.48c-4.3 2.62-8.67 5.43-13 8.35l.71 1.06c4.3-2.91 8.66-5.71 12.94-8.31zM591.78 413.66l-.33-1.24c-4.8 1.29-9.76 2.87-14.74 4.69l.45 1.2C582.09 416.51 587 414.94 591.78 413.66zM562.42 423c-4.57 2.07-9.22 4.37-13.86 6.85l.61 1.13c4.61-2.46 9.24-4.75 13.78-6.81zM601.94 426a112.52 112.52 0 0014.32 5.9l.41-1.22a109.87 109.87 0 01-14.15-5.83zM631.5 434.41l-.23 1.27a105.9 105.9 0 0015.41 1.63l0-1.29A103.45 103.45 0 01631.5 434.41zM559.87 382.62l-1.18.51a72.44 72.44 0 007.72 13.46l1-.75A70.74 70.74 0 01559.87 382.62z"></path><path fill="#015288" d="M576.6 408.28a98.66 98.66 0 0012 9.79l.73-1.05a96.88 96.88 0 01-11.85-9.67zM558.34 337.75l1.18.51a66.37 66.37 0 017.67-13.14l-1-.77A67.72 67.72 0 00558.34 337.75zM554.33 368.23l1.27-.19a53.15 53.15 0 01-.17-15.16l-1.27-.18A54.27 54.27 0 00554.33 368.23zM630.08 283c4.62-1.77 9.5-3.49 14.5-5.11l-.4-1.22c-5 1.62-9.92 3.35-14.55 5.13zM576.52 312.84l.88.94a114.41 114.41 0 0111.88-9.65l-.74-1.05A115.79 115.79 0 00576.52 312.84zM602.25 295.93c4.27-2.4 8.87-4.75 13.68-7l-.54-1.16c-4.84 2.23-9.47 4.6-13.77 7zM662.16 436.62a98.66 98.66 0 0015.18-3.09l-.36-1.24a95.85 95.85 0 01-15 3z"></path><polygon fill="#80caff" points="579.56 449.22 579.2 451.92 577.69 569.7 530.18 542.54 374.02 522.16 387.07 424.01 579.56 449.22"></polygon><polygon fill="#005288" points="468.09 871.75 467.73 874.45 466.23 992.23 418.72 965.06 262.55 944.69 275.61 846.54 468.09 871.75"></polygon><polygon fill="#80caff" points="1851.98 572.25 1882.1 506.3 1813.91 467.44 1786.74 525.54 1851.98 572.25"></polygon><polygon fill="#015288" points="1881.91 508.68 1813.91 467.44 1867.03 432.53 1934.73 477.32 1881.91 508.68"></polygon><polygon fill="#fe6e75" points="1851.98 572.25 1880.48 507.68 1934.73 477.32 1916.97 540.25 1851.98 572.25"></polygon><path fill="#086667" d="M1362.91,574.22a20.54,20.54,0,0,1-3,3.58l-1.31-1.24c3.69-3.68,4.87-6.91,3.35-9.35l1.51-.79C1364.94,568.71,1364.73,571.34,1362.91,574.22Zm-35.43,53.5-1.71.33c-1.18-4.08-2.16-8.09-2.87-11.9l1.74-.17C1325.35,619.73,1326.31,623.68,1327.48,627.72ZM1350.42,585a88.76,88.76,0,0,1-10.68,5.53l-.84-1.56a91.4,91.4,0,0,0,10.48-5.42Zm1.27-22.76a21.53,21.53,0,0,0-11.41,1.95l-.87-1.53a23,23,0,0,1,12.34-2.12Zm-28.57,41.91-1.77,0a71.64,71.64,0,0,1,0-9.61,32.9,32.9,0,0,1-6-1.35l.43-1.62a31.1,31.1,0,0,0,5.67,1.28c0-.25,0-.49.08-.73l1.76.31c0,.19,0,.38-.06.58.71,0,1.42,0,2.09,0a13.59,13.59,0,0,0,2.3-.28l.47,1.7a19.78,19.78,0,0,1-2.57.3c-.79,0-1.61,0-2.43,0A71.17,71.17,0,0,0,1323.12,604.12Zm2.75-23-1.68-.67a35.13,35.13,0,0,1,5.78-10.36l1.43,1.11A34.25,34.25,0,0,0,1325.87,581.11Zm25.67-65.86a22.22,22.22,0,0,1-2.13,2.85l-1.4-1.16a21,21,0,0,0,2-2.66l.08-.14c.76-2.9.56-5.3-.58-7.14l1.49-.79c1.43,2.29,1.7,5.18.78,8.59Zm-46.73,70.62-1,1.37a62.48,62.48,0,0,1-9.72-8.46l1.27-1.08A60.32,60.32,0,0,0,1304.81,585.87Zm35.1-60.46a57,57,0,0,1-11.24,4.6l-.65-1.64a53.93,53.93,0,0,0,10.92-4.47Zm-.74-22.95a48.24,48.24,0,0,0-12.05.83l-.45-1.68a50.82,50.82,0,0,1,12.5-.86Zm-22.56,30.06a84.37,84.37,0,0,1-12.45.63l-.1-1.7a85.09,85.09,0,0,0,12.19-.63Zm-28.87,35.41-1.48.81a64,64,0,0,1-5.85-11.14l1.65-.5A63.2,63.2,0,0,0,1287.74,567.93Zm27.8-61.57a87.56,87.56,0,0,0-11,4.58l-.92-1.54a94.78,94.78,0,0,1,11.17-4.65Zm23.29-47.9a17.32,17.32,0,0,1-7.8,6.3l-.86-1.56a15.77,15.77,0,0,0,7.11-5.71l.14-.22a16.69,16.69,0,0,0,.8-1.47l1.62.82a17.77,17.77,0,0,1-.86,1.58ZM1291.6,532a79.12,79.12,0,0,1-12.36-3.17l.48-1.61a74.12,74.12,0,0,0,12.07,3.08ZM1279,545.56l-1.78.06a30.37,30.37,0,0,1,.2-8.88,22.51,22.51,0,0,1,.83-3.2l1.69.66a20.37,20.37,0,0,0-.77,2.95A28.27,28.27,0,0,0,1279,545.56Zm15.51-28.62a51.4,51.4,0,0,0-8.67,7.63l-1.39-1.18a52.39,52.39,0,0,1,8.93-7.85Zm44.27-72.47-1.31,1a13.53,13.53,0,0,0-2.88-2.36,30.19,30.19,0,0,0-7.72-3.26l.4-1.64a33,33,0,0,1,8.21,3.49A15.26,15.26,0,0,1,1338.78,444.47Zm-19.67,23.43a99.48,99.48,0,0,1-12.42.83l-.16-1.72a94.18,94.18,0,0,0,12.19-.79Zm-51.6,55.64c-1-.57-2-1.17-3-1.79a63.25,63.25,0,0,1-7.59-5.57l1.11-1.24a63.75,63.75,0,0,0,7.37,5.41c.95.59,1.93,1.17,2.91,1.72Zm47.18-86c-3.79-.47-8-.77-12.36-.91l-.09-1.71c4.47.14,8.69.45,12.53.91Zm-20.51,30.73c-4.76-.32-9-.78-12.5-1.19l.08-1.69c3.48.4,7.68.85,12.41,1.18ZM1249.37,506l-1.37,1a67.89,67.89,0,0,1-6.93-10.6l1.59-.67A64.32,64.32,0,0,0,1249.37,506Zm40.61-69.3c-4.3.13-8.54.41-12.26.8l-.33-1.7c3.76-.39,8-.68,12.39-.82Zm-20.75,28.65c-4.18-.72-8.35-1.57-12.39-2.52l.29-1.66c4,.94,8.13,1.78,12.27,2.5Zm-30.86,19.1-1.73.25a39,39,0,0,1-1-12.16l1.77.25A37.62,37.62,0,0,0,1238.37,484.41Zm27.66-44.5a57.37,57.37,0,0,0-10.6,5l-1-1.46a58.3,58.3,0,0,1,10.89-5.2Zm-21.44,19.59c-.94-.28-1.89-.59-2.83-.89-.58,1-1.1,2-1.58,3.07l-1.63-.79c.43-1,.92-1.92,1.45-2.85-2.54-.84-5-1.74-7.45-2.68l.55-1.58q3.78,1.47,7.78,2.79a37.24,37.24,0,0,1,4.26-5.53l1.36,1.19a36.37,36.37,0,0,0-3.83,4.92l2.33.73Zm38-75.4-2.11.17c-2.73.21-6.2.5-10.18.87l-.31-1.71c4-.36,7.47-.65,10.2-.87l2.1-.17Zm-61.73,66.18a126,126,0,0,1-11.23-6.15l.87-1.42c3.46,2.12,7.19,4.18,11.06,6.06Zm37.21-63.9c-4.23.48-8.33,1-12.15,1.55l-.4-1.68c3.84-.55,8-1.07,12.21-1.57Zm-24.21,3.53c-4.21.76-8.2,1.6-11.89,2.46l-.55-1.65c3.71-.88,7.75-1.72,12-2.5Zm-33.7,45.59-1.06,1.28a62.86,62.86,0,0,1-9.32-8.85l1.36-1A61.38,61.38,0,0,0,1200.12,435.5Zm10.21-39.9a82.63,82.63,0,0,0-11,4.39l-.91-1.54a86,86,0,0,1,11.26-4.47ZM1186,416.45l-1.77,0c-.41-4,1-7.79,4.3-11.2l1.35,1.22C1186.88,409.57,1185.58,412.9,1186,416.45Z"></path><polygon fill="#fe6e75" points="917.85 261.28 845.24 322.96 866.55 332.22 853.2 433.7 942.32 449.14 951.07 331.08 967.58 327.84 917.85 261.28"></polygon><polygon fill="#fff" points="1753.08 603.11 1792.87 635.31 1831.44 595.52 1796.5 566.72 1753.08 603.11"></polygon><polygon fill="#015288" points="1791.28 634.76 1831.44 595.52 1845.97 637.98 1803.43 676.4 1791.28 634.76"></polygon><polygon fill="#fe6e75" points="1753.08 603.11 1792.22 633.96 1803.43 676.4 1763.52 653.17 1753.08 603.11"></polygon><path fill="#fee227" fill-rule="evenodd" d="M1558.37,209.18c-41.45-.28-81.77,25.6-81.77,52.37,0,25,11.29,43.07,29.74,52.73,18.57,32.87,20.28,60.22,20.28,60.22l55.27,2.18s.76-50.94,19.51-70.66c14.39-9,26.16-22,27.41-39.33C1631.24,233.14,1600,209.23,1558.37,209.18Z"></path><path fill="#005387" d="M1532.5,298.87a45.59,45.59,0,0,0,8.35,2c-.73,4.56-1.58,9.22-2.4,13.73-1.78,9.76-3.48,54.08-3.63,60.62h1.56c.15-6.42,1.85-50.71,3.61-60.44.85-4.59,1.69-9.22,2.41-13.71a55.12,55.12,0,0,0,18.39-1.17c-1.31,14.43,2,64.79,4.18,75.16l0,.16h1.59c0-.12-.06-.24-.08-.37-2.22-10.41-5.53-60.93-4.12-75.34a64.84,64.84,0,0,0,12.37-4.61c7.53-3.7,12.27-16.5,11.37-22.89-.41-2.93-1.88-3.93-3-4.25-2.11-.58-4.93.5-8.38,3.23-8.77,6.91-12.59,16.93-13.78,27.59a53.14,53.14,0,0,1-18.33,1.26c2.24-14.35,3.1-27-1.73-32a7.34,7.34,0,0,0-4.7-2.2c-6.67-.66-11.11,1.63-12.85,6.62C1520.11,281.46,1527.19,297,1532.5,298.87Zm43.32-27c2.49-2,4.62-3,6.08-3a2.41,2.41,0,0,1,.67.08c1,.29,1.76,1.44,2,3.23.83,5.94-3.71,18.29-10.65,21.71a63.7,63.7,0,0,1-11.39,4.31C1563.77,288,1567.49,278.43,1575.82,271.86Zm-51,.71c1.35-3.87,4.43-5.83,9.19-5.83.62,0,1.27,0,2,.1a5.67,5.67,0,0,1,3.66,1.73c4.46,4.62,3.56,17.28,1.41,31.07a43.45,43.45,0,0,1-7.91-1.9C1528.94,296.29,1521.75,281.42,1524.83,272.57Z"></path><path fill="#261f48" fill-rule="evenodd" d="M1530.31,386.13c2.07,2.17,29.64,3.72,37.17,2.5,4.43-.72,11.4-1,14.41-4,.92-.9.21-9.88-.48-9.88H1528C1525.92,374.79,1526.69,382.33,1530.31,386.13Z"></path><line x1="1556.15" x2="1557.38" y1="154.44" y2="182.09" fill="none" stroke="#015288" stroke-miterlimit="10" stroke-width="2"></line><line x1="1607.15" x2="1592.4" y1="161.2" y2="183.93" fill="none" stroke="#015288" stroke-miterlimit="10" stroke-width="2"></line><line x1="1498.4" x2="1521.13" y1="166.73" y2="191.92" fill="none" stroke="#015288" stroke-miterlimit="10" stroke-width="2"></line><line x1="905.8" x2="905.71" y1="500.88" y2="525.1" fill="none" stroke="#000" stroke-miterlimit="10" stroke-width="3"></line><line x1="887.82" x2="887.73" y1="464.06" y2="488.28" fill="none" stroke="#000" stroke-miterlimit="10" stroke-width="3"></line><path fill="none" stroke="#000" stroke-miterlimit="10" stroke-width="3" d="M729.55 637.31c0 13.13-16.59 20.86-26.46 20.86-22 0-25.69-17.56-25.69-26.45s10.27-24.21 27.52-23.15C720.85 609.54 729.55 624.18 729.55 637.31zM1704 499.82c0 6.61-8.35 10.49-13.31 10.49-11.07 0-12.92-8.83-12.92-13.3s5.17-12.17 13.84-11.64C1699.6 485.85 1704 493.22 1704 499.82z"></path><polygon fill="#0086ca" points="1147.35 511.53 1131.27 557.76 1177.51 560.78 1147.35 511.53"></polygon><polygon fill="#fee227" points="1188.69 120.43 1155.95 168.18 1218.71 172.27 1188.69 120.43"></polygon><line x1="615.68" x2="620.43" y1="652.7" y2="655.62" fill="none" stroke="#000" stroke-miterlimit="10" stroke-width="3"></line><path fill="#fcd4ca" d="M839.14 710.58l14.6-2.58s-5.87 5.28-6.87 6.44c-1.8 2.09-10.31 3.87-10.31 3.87zM986.88 683.52l14.6-2.57s3 11.59-7.73 9.87c-2.72-.43-9.45.43-9.45.43zM315.26 760.48a15.64 15.64 0 01-5.73-7.08l-.34-1.69-6.41 3.37 7.76 8.1S319.65 763.51 315.26 760.48z"></path></g></g></svg>