<svg xmlns="http://www.w3.org/2000/svg" enable-background="new 0 0 2695.64 2100" viewBox="0 0 2695.64 2100" id="girl-getting-profit-from-investment"><path fill="#f2f0ed" d="M2270.67 608.69H421.11c-30.72 0-55.62 26.32-55.62 58.81v1270.39c0 32.47 24.9 58.79 55.62 58.79h1849.56c30.71 0 55.62-26.32 55.62-58.79V667.51c.01-32.49-24.9-58.82-55.62-58.82z"></path><path fill="none" stroke="#231f20" stroke-linecap="round" stroke-linejoin="round" stroke-miterlimit="10" stroke-width="4.214" d="M2270.67 608.69H421.11c-30.72 0-55.62 26.32-55.62 58.81v1270.39c0 32.47 24.9 58.79 55.62 58.79h1849.56c30.71 0 55.62-26.32 55.62-58.79V667.51c.01-32.49-24.9-58.82-55.62-58.82z"></path><path fill="#fff" d="M426.42 815.12h1845.25v1012.61H426.42z"></path><path fill="#f9f7f2" d="M1758.07 881.59h485.43v185.38h-485.43zM1758.07 1103.96h485.43v185.38h-485.43zM1758.07 1321.43h485.43v116.4h-485.43zM1758.07 1470.48h485.43v309.54h-485.43zM469.54 875.32h1243.83v309.54H469.54zM469.54 1224.86h1243.83v309.54H469.54zM469.54 1573.31h1243.83v206.71H469.54z"></path><circle cx="1349.05" cy="695.13" r="22.86" fill="#231f20"></circle><path fill="#231f20" d="M383.53 1979.42h2277.48v61.84H383.53z"></path><path fill="#f7ce74" d="M423.22 747.82h1848.46v71.81H423.22z"></path><circle cx="2206.99" cy="783.72" r="14.35" fill="#fff"></circle><circle cx="2160.15" cy="783.72" r="14.35" fill="#fff"></circle><circle cx="2113.32" cy="783.72" r="14.35" fill="#fff"></circle><path fill="#332e2c" d="M1067.81 1246.1c41.2-28.01 79.3-70.34 108.35-99.93 62.05-63.21 162.41-76.49 223.95-140.2 73.62-76.2 71.24-202.23 140.72-282.22 24.42-28.12 56.29-48.7 82.76-74.9 37.56-37.17 63.69-85.75 74-137.58 10.47-52.65 5.83-110.56 34.48-155.95 24.73-39.18 69.9-61.27 97.07-98.8 46.45-64.16 31.81-155.96 65.79-227.5H48.48c-5.31 2.12-8.4 1.21-13.71 3.33-2.06 58.49 17.94 117.5 55.13 162.7 27.76 33.73 64.51 59.86 88.41 96.43 31.02 47.48 36.79 106.77 58.09 159.35 17.9 44.19 47.13 83.73 84.12 113.8 21.06 17.12 44.88 31.52 61.57 52.92 30.18 38.68 31.25 91.66 43.43 139.18 13.96 54.44 44.29 104.58 86.03 142.22 36.48 32.9 82.19 57.39 107.94 99.23 26.95 43.79 28.46 101.44 62.38 140.07 41.19 46.91 115.64 49.57 161.22 92.24 30.68 28.71 122.45 51.22 164.74 42.93 20.26-4 40.47-14.05 59.98-27.32z"></path><path fill="#ffce55" d="M1051.57 2060.79H543.99c-19.6 0-35.49-15.89-35.49-35.49v-19.86c0-19.6 15.89-35.49 35.49-35.49h507.58c19.6 0 35.49 15.89 35.49 35.49v19.86c0 19.6-15.89 35.49-35.49 35.49z"></path><path fill="#ffd96e" d="M1051.57 1969.94H543.99c-19.6 0-35.49-15.89-35.49-35.49v-19.86c0-19.6 15.89-35.49 35.49-35.49h507.58c19.6 0 35.49 15.89 35.49 35.49v19.86c0 19.6-15.89 35.49-35.49 35.49z"></path><path fill="#ffce55" d="M1051.57 1881.03H543.99c-19.6 0-35.49-15.89-35.49-35.49v-19.86c0-19.6 15.89-35.49 35.49-35.49h507.58c19.6 0 35.49 15.89 35.49 35.49v19.86c0 19.6-15.89 35.49-35.49 35.49z"></path><path fill="#ffd96e" d="M1051.57 1790.18H543.99c-19.6 0-35.49-15.89-35.49-35.49v-19.86c0-19.6 15.89-35.49 35.49-35.49h507.58c19.6 0 35.49 15.89 35.49 35.49v19.86c0 19.6-15.89 35.49-35.49 35.49z"></path><path fill="#ffce55" d="M1051.57 1708.44H543.99c-19.6 0-35.49-15.89-35.49-35.49v-19.86c0-19.6 15.89-35.49 35.49-35.49h507.58c19.6 0 35.49 15.89 35.49 35.49v19.86c0 19.6-15.89 35.49-35.49 35.49z"></path><path fill="#ffd96e" d="M1051.57 1617.59H543.99c-19.6 0-35.49-15.89-35.49-35.49v-19.86c0-19.6 15.89-35.49 35.49-35.49h507.58c19.6 0 35.49 15.89 35.49 35.49v19.86c0 19.6-15.89 35.49-35.49 35.49z"></path><path fill="#ffce55" d="M1051.57 1528.68H543.99c-19.6 0-35.49-15.89-35.49-35.49v-19.86c0-19.6 15.89-35.49 35.49-35.49h507.58c19.6 0 35.49 15.89 35.49 35.49v19.86c0 19.6-15.89 35.49-35.49 35.49z"></path><path fill="#ffd96e" d="M1051.57 1437.83H543.99c-19.6 0-35.49-15.89-35.49-35.49v-19.86c0-19.6 15.89-35.49 35.49-35.49h507.58c19.6 0 35.49 15.89 35.49 35.49v19.86c0 19.6-15.89 35.49-35.49 35.49z"></path><path fill="#ffce55" d="M1614.11 2060.79h-507.58c-19.6 0-35.49-15.89-35.49-35.49v-19.86c0-19.6 15.89-35.49 35.49-35.49h507.58c19.6 0 35.49 15.89 35.49 35.49v19.86c0 19.6-15.89 35.49-35.49 35.49z"></path><path fill="#ffd96e" d="M1614.11 1969.94h-507.58c-19.6 0-35.49-15.89-35.49-35.49v-19.86c0-19.6 15.89-35.49 35.49-35.49h507.58c19.6 0 35.49 15.89 35.49 35.49v19.86c0 19.6-15.89 35.49-35.49 35.49z"></path><path fill="#ffce55" d="M1614.11 1881.03h-507.58c-19.6 0-35.49-15.89-35.49-35.49v-19.86c0-19.6 15.89-35.49 35.49-35.49h507.58c19.6 0 35.49 15.89 35.49 35.49v19.86c0 19.6-15.89 35.49-35.49 35.49z"></path><path fill="#ffd96e" d="M1614.11 1790.18h-507.58c-19.6 0-35.49-15.89-35.49-35.49v-19.86c0-19.6 15.89-35.49 35.49-35.49h507.58c19.6 0 35.49 15.89 35.49 35.49v19.86c0 19.6-15.89 35.49-35.49 35.49z"></path><path fill="#ffce55" d="M1614.11 1708.44h-507.58c-19.6 0-35.49-15.89-35.49-35.49v-19.86c0-19.6 15.89-35.49 35.49-35.49h507.58c19.6 0 35.49 15.89 35.49 35.49v19.86c0 19.6-15.89 35.49-35.49 35.49z"></path><path fill="#ffd96e" d="M2202.19 2050.63h-507.58c-19.6 0-35.49-15.89-35.49-35.49v-19.86c0-19.6 15.89-35.49 35.49-35.49h507.58c19.6 0 35.49 15.89 35.49 35.49v19.86c.01 19.6-15.88 35.49-35.49 35.49z"></path><path fill="#ffce55" d="M2202.19 1961.72h-507.58c-19.6 0-35.49-15.89-35.49-35.49v-19.86c0-19.6 15.89-35.49 35.49-35.49h507.58c19.6 0 35.49 15.89 35.49 35.49v19.86c.01 19.6-15.88 35.49-35.49 35.49z"></path><path fill="#ffd96e" d="M2202.19 1870.87h-507.58c-19.6 0-35.49-15.89-35.49-35.49v-19.86c0-19.6 15.89-35.49 35.49-35.49h507.58c19.6 0 35.49 15.89 35.49 35.49v19.86c.01 19.6-15.88 35.49-35.49 35.49z"></path><path fill="#fcb542" d="M1369.68 2060.79H862.11c-19.6 0-35.49-15.89-35.49-35.49v-30.07c0-19.6 15.89-35.49 35.49-35.49h507.58c19.6 0 35.49 15.89 35.49 35.49v30.07c0 19.6-15.89 35.49-35.5 35.49z"></path><circle cx="508.5" cy="1799.83" r="271.15" fill="#f9c943"></circle><circle cx="508.5" cy="1799.83" r="222.37" fill="none" stroke="#1c1919" stroke-linecap="round" stroke-linejoin="round" stroke-miterlimit="10" stroke-width="4.156"></circle><path fill="none" stroke="#1c1919" stroke-linecap="round" stroke-linejoin="round" stroke-miterlimit="10" stroke-width="4.156" d="M432.4 1866.07c0 36.57 34.07 66.21 76.1 66.21s76.1-29.64 76.1-66.21c0-85.99-152.2-48.59-152.19-132.48 0-36.57 34.07-66.21 76.1-66.21 42.03 0 76.1 29.64 76.1 66.21M529.3 1621.81v356.05M478.56 1621.81v356.05"></path><circle cx="826.05" cy="206.61" r="66.24" fill="none" stroke="#e8e3df" stroke-linecap="round" stroke-linejoin="round" stroke-miterlimit="10" stroke-width="3.301"></circle><circle cx="826.05" cy="206.61" r="54.32" fill="none" stroke="#e8e3df" stroke-linecap="round" stroke-linejoin="round" stroke-miterlimit="10" stroke-width="3.301"></circle><path fill="none" stroke="#e8e3df" stroke-linecap="round" stroke-linejoin="round" stroke-miterlimit="10" stroke-width="3.301" d="M807.46 222.79c0 8.93 8.32 16.17 18.59 16.17s18.59-7.24 18.59-16.17c0-21-37.18-11.87-37.18-32.36 0-8.93 8.32-16.17 18.59-16.17s18.59 7.24 18.59 16.17M831.13 163.12v86.98M818.74 163.12v86.98"></path><circle cx="1031.02" cy="598.7" r="53.37" fill="none" stroke="#e8e3df" stroke-linecap="round" stroke-linejoin="round" stroke-miterlimit="10" stroke-width="3.301"></circle><circle cx="1031.02" cy="598.7" r="43.77" fill="none" stroke="#e8e3df" stroke-linecap="round" stroke-linejoin="round" stroke-miterlimit="10" stroke-width="3.301"></circle><path fill="none" stroke="#e8e3df" stroke-linecap="round" stroke-linejoin="round" stroke-miterlimit="10" stroke-width="3.301" d="M1016.04 611.74c0 7.2 6.71 13.03 14.98 13.03s14.98-5.84 14.98-13.03c0-16.92-29.96-9.56-29.96-26.08 0-7.2 6.71-13.03 14.98-13.03s14.98 5.84 14.98 13.03M1035.11 563.66v70.08M1025.12 563.66v70.08"></path><circle cx="1586.19" cy="233.29" r="72.94" fill="none" stroke="#e8e3df" stroke-linecap="round" stroke-linejoin="round" stroke-miterlimit="10" stroke-width="3.301"></circle><circle cx="1586.19" cy="233.29" r="59.81" fill="none" stroke="#e8e3df" stroke-linecap="round" stroke-linejoin="round" stroke-miterlimit="10" stroke-width="3.301"></circle><path fill="none" stroke="#e8e3df" stroke-linecap="round" stroke-linejoin="round" stroke-miterlimit="10" stroke-width="3.301" d="M1565.72 251.11c0 9.84 9.16 17.81 20.47 17.81 11.3 0 20.47-7.97 20.47-17.81 0-23.13-40.94-13.07-40.94-35.64 0-9.84 9.16-17.81 20.47-17.81 11.3 0 20.47 7.97 20.47 17.81M1591.78 185.41v95.77M1578.13 185.41v95.77"></path><path fill="#f9956e" d="m973.52 984.24 78.61 136.65-82.34 17.25-97.56-124.36z"></path><path fill="#f9956e" d="M962.25 850.47c3.45 18.78 6.06 37.81 7.99 57.26 3.13 31.52 5.82 63.09 8.25 94.67l-83.1 5.12c-3.89-35.45-7.79-70.91-11.68-106.36-2.87-26.15-.62-47.82 1.37-74.11 2.85-37.86 3.67-75.87 2.44-113.82-.16-5 .13-10.96 4.38-13.6 4.38-2.71 10.09-.02 14.1 3.22 13.2 10.68 20.47 26.9 26.64 42.71 13.57 34.74 23.09 69.36 29.61 104.91zM957.99 1483.08l-59.74 387.53-108.31 6.67 8.79-384.39zM1163.19 1486.09l-81.12 369.98-113.64 7 35.94-378.37zM671.03 669.69c60.05 61.2 118.79 68.52 175.91 8.08l-32.22-13.64.59-46.59.29-22.79.13-10.15-107.29-53.43-.48 124.49-36.93 14.03z"></path><path fill="#e5785c" d="M1207.17 1319.77c44.52-55.23-4.13-128.36-60.69-147.4-53.99-18.17-109.33-30.29-162.79-50.24-22.29-8.32-39.66-9.98-49.27-34.86-7.67-19.85-4.86-43.47-22.67-58.48-10.9-9.19-25.49-12.45-39.52-15.02a756.533 756.533 0 0 0-75.74-9.92c-24.41-1.95-51.14-2.04-70.57 12.86-13.4 10.28-21.23 26.34-25.67 42.64-8.09 29.64-6.25 61.9 5.15 90.43 14.11 35.32 41.04 51.2 70.9 70.3 72.32 46.25 133.48 97.39 217.71 122.25 38.32 11.31 79.21 16.86 119.04 11.69 34.26-4.43 70.57-5.03 94.12-34.25z"></path><path fill="#f9956e" d="M899.4 820.39a118.1 118.1 0 0 1-2.15 6.43c-5.64 15.37-14.17 30-27.02 40.08-38.78 30.42-106.59 7.07-147.36-11.45-23.6-10.72-43.31-32.08-58.94-52.54-13.48-17.64-23.75-38.21-25.95-59.85-4.63-45.55 25.08-72.53 60.4-92.85L717.87 639l75.95-.34s47.51 24.33 51.58 26.48c3.33 1.76 6.75 7.62 10.15 9.45l.09.06c2.7 1.48 5.41 2.99 8.05 4.57 44.38 26.56 49.25 96.69 35.71 141.17z"></path><path fill="#e5785c" d="M648.75 1034.49c-12.06 15.5-13.5 41.99-18.39 61.73-12.86 51.89-27.17 109.16-12.01 162.13 19.96 69.71 100.76 91.15 161.74 106.89-12.29 95.6-17.32 191.99-19.79 288.3-.35 13.75-8.13 52.55.98 63.47 7.59 9.09 30.07 4.14 40.48 4.08 48.17-.3 94.34-7.65 141.5-17.11 9.9-105.66 28.81-209.82 47.74-314.14 9.42-51.89 21.07-113.82-18.6-156.65-11.86-12.8-26.59-22.51-41.17-32.1-42.97-28.24-53.13-43.12-55.54-95.65l-2.67-58.03c-.46-9.95-1.02-20.28-5.78-29.03-16.21-29.78-110.77-5.83-138.95-3.31-22.05 1.97-48.9-.08-69.14 10.58-4.17 2.19-7.58 5.22-10.4 8.84z"></path><path fill="#1c1a1a" d="m617.4 1073.66 58.53-12.16-51.39-13.06c-2.52 8.15-5.01 17.16-7.14 25.22z"></path><path fill="none" stroke="#1c1a1a" stroke-linecap="round" stroke-linejoin="round" stroke-miterlimit="10" stroke-width="4.516" d="m646.31 980.94 43.84-11.1"></path><path fill="#e5785c" d="M1027.45 1299.82c-33.91 131.2-59.66 264.63-75.36 399.23l191.75-11.82c24.32-117.8 46.31-236.42 70.64-354.22 3.11-15.08 6.24-30.51 4.19-45.78-5.3-39.47-46.59-67.68-86.4-66.51-39.82 1.18-94.86 40.54-104.82 79.1z"></path><path fill="#f4efed" d="M921.39 774.67c-4.21-13.6-3.33-28.41-4.13-42.59-.67-11.45-2.42-22.49-8.84-32.15-11.13-16.74-40.98-29.62-65.86-36.26.52 1.4 2.37 4.17 2.84 5.57.24.7.47 1.46.68 2.27 12.21 46.29-44.81 79.16-79.42 46.09-32.87-31.4-64.22-61.72-68.28-67.39l-99.99 57.53 43.69 170.82c3.96 21.42 3.63 43.22-.97 64.24l-20.63 94.26c-.55 2.53 115.56 37.78 125.62 39.17 62.88 8.68 107.34-17.45 164.66-29.92 3.85-.85 7.71-1.69 11.56-2.53-16.11-44.77-13.96-94.96 5.57-136.76 1.25-2.71 2.59-5.38 4.01-8.03 9.81-18.33 23.39-36.63 21.37-57.75-2.34-24.34-24.59-43.02-31.88-66.57z"></path><path fill="#f9956e" d="M636 709.64c-14.34-8.79-32.38-9.9-45.41 1.97-10.42 9.48-19.34 24.89-22.13 38.56-8.58 42.09-3.57 85.06-1.15 127.5 2.5 43.94 8.82 87.63 18.12 130.64l98.54-18.63c4.39-.83 4.07-55.69 4.12-61.27.19-24.64-1.02-49.27-2.98-73.83-3.7-46.42-3.65-104-40.51-138.42a54.033 54.033 0 0 0-8.6-6.52z"></path><path fill="#231f20" d="M886.45 1184.43 780 1139.89l382.82-23.6 61.55 47.31z"></path><path fill="#f9956e" d="M836.38 1144.76c10.9-13.56 27.06-26.26 36.06-40.76a6722.27 6722.27 0 0 1-142.24-94.97c-24.58-16.87-36.83-32.31-66.63-25.37-26.42 6.15-52.77 12.62-79.46 17.54 6.94 27.86 7.99 49.77 31.58 70.28 18.14 15.78 40.79 25.24 63.23 33.87 45.62 17.54 92.15 32.72 139.34 45.45 3.27.88 6.75 1.75 9.98.75 3.44-1.06 5.9-4 8.14-6.79z"></path><path fill="#bcb5b3" d="m887.2 1196.65-102.71-45.14a6.962 6.962 0 0 1-4.14-5.94l-.35-5.67 106.45 44.53.75 12.22z"></path><path fill="#f9956e" d="M838.35 1153.61c-6.29.41-12.77.8-18.73-1.22-6.64-2.25-12.41-7.41-19.42-7.7-4.52-4.89-4.97-9.05-3.56-15.56s5.03-12.32 9.06-17.63c19.35-25.47 51.54-46.93 79.73-61.42 4.31-2.21 8.79-4.31 13.59-4.88 16.33-1.95 34.27 11.4 44.52 22.67 8.53 9.37 15.18 20.25 21.77 31.07 1.97 3.24 14.99 24 4.89 25.9-1.27.24-2.56-.27-3.71-.85a28.42 28.42 0 0 1-11.1-9.99c.3 3.13 2.14 5.86 3.49 8.71s2.18 6.35.52 9.03c-6.19 10-28.35-22.95-31.15-27.29 6.82 10.56 12.26 22 16.15 33.94.73 2.25 1.38 4.84.15 6.87-2.2 3.62-7.79 2.1-11.33-.22-11.78-7.71-20.41-19.28-28.78-30.6 6.05 9.83 11.32 20.14 15.75 30.8 1.29 3.11 2.21 7.39-.58 9.28-2.29 1.55-5.38.21-7.69-1.3-8.3-5.41-14.54-12.8-19.6-21.21-8.28 1.55-13.08 9.45-20.06 13.58-10.31 6.09-22.22 7.25-33.91 8.02z"></path><path fill="#bcb5b3" d="m1254.8 933.22-28.67 234.3c-.56 4.59-4.92 8.54-9.74 8.84l-329.19 20.29 29.68-242.6c.7-5.75 6.17-10.71 12.22-11.09l316.03-19.48c6.04-.37 10.37 3.99 9.67 9.74z"></path><path fill="none" stroke="#231f20" stroke-linecap="round" stroke-linejoin="round" stroke-miterlimit="10" stroke-width="3.301" d="m886.45 1184.43 337.92-20.83"></path><path fill="#231f20" d="m780.09 1365.24 28.13-21.83-56.27 14.8z"></path><path fill="none" stroke="#231f20" stroke-linecap="round" stroke-linejoin="round" stroke-miterlimit="10" stroke-width="3.301" d="m685.37 978.53-43.57 10.23M995.65 1350.58c6.74-35.72 20.5-92.83-2.69-125.16-7.05-9.83-16.68-17.48-26.17-24.98"></path><path fill="#231f20" d="m792.81 1751.77 74.6-35.12-76.45 5.2zM984.59 1728.92l68.98-36.13-66.38 4.09z"></path><path fill="#f4edea" d="M1250.44 1949.23c-4.15 37.68-165.2-11.46-192.76-12.78-30.87-1.49-75.5 6.31-97.28-23.8-13.48-18.62-2.77-42.11 5.27-58.99 2.5-5.25 3.87-11.31 5.13-17.47l118.99.04c6.65 7.32 10.04 14.18 17.55 19.5a661.208 661.208 0 0 0 60.67 38.13c18.03 9.99 36.53 19.13 55.42 27.31 12.83 5.54 28.48 14.7 27.01 28.06z"></path><path fill="#f4edea" d="M1063.48 1945.8c-4.08 38.09-163.44-1.37-190.7-1.01-30.54.41-74.68 10.97-96.25-17.91-9.07-12.14-6.5-28.1-2.64-41.66 1.02-3.57 13.61-38.98 13.94-39l115.28-7.11c7.51 8.08 10.23 16.06 18.75 21.62a598.777 598.777 0 0 0 60.05 34.55 584.2 584.2 0 0 0 54.83 24.02c12.7 4.77 28.19 13 26.74 26.5z"></path><path fill="#ffcae5" d="M877.03 503.53c2.25 7.14 6.72 13.51 7.43 21.05.78 8.22-3.07 16.3-3.6 24.58-.96 15.02 10.5 30.48-4.19 40.88-9.79 6.93-27.22 8.99-38.46 7.21-4.22-.67-8.13-2.73-12.34-3.43-11.06-1.83-23.68 5.63-33.14-.55-8.65-5.65-8.69-19.52-4.32-29.57 4.37-10.05 11.92-18.36 16.01-28.54 5.77-14.33 4.52-31.81 13.92-43.84 7.16-9.16 18.95-12.89 26.54-21.66 7.82-9.03 22.73-33.43 29.08-9.83 3.79 14.04-1.38 29.57 3.07 43.7z"></path><path fill="#f9956e" d="M792.42 596.75c-8.78-1.93-17.29-5.01-24.65-7.92-18-7.11-35.25-18.26-46.7-34.12-20.2-27.98-30.22-62.73-16.82-95.9 19.31-47.81 80.26-73.98 127.06-48.39 32.06 17.53 37.29 49.99 35.16 82.97-1.82 28.15-5.84 57.4-20.04 82.12-3.67 6.4-8.02 12.66-14.16 16.74-11.64 7.73-26.07 7.53-39.85 4.5z"></path><path fill="#231f20" d="M791.35 501.3c-1.11 3.7-4.03 6.09-6.53 5.34s-3.62-4.36-2.51-8.05c1.11-3.7 4.03-6.09 6.53-5.34s3.62 4.35 2.51 8.05zM844.97 499.4c-1.11 3.7-4.03 6.09-6.53 5.34s-3.62-4.36-2.51-8.05c1.11-3.7 4.03-6.09 6.53-5.34s3.62 4.35 2.51 8.05z"></path><path fill="none" stroke="#231f20" stroke-linecap="round" stroke-linejoin="round" stroke-miterlimit="10" stroke-width="3.117" d="m821.14 494.21-1.44 20.98c1.71-.57 3.84-1.28 5.63-1.18 1.8.1 3.67 1.04 4.34 2.72.87 2.19-.56 4.58-2.07 6.38-1.66 1.98-3.5 3.81-5.49 5.45"></path><path fill="#231f20" d="M789.61 482.02c4.23-.52 9.65-1.65 10.12-5.61.13-1.05-.24-2.11-.8-3.01-1.74-2.78-4.87-3.59-7.94-3.57-7.87.05-17.76 3.33-22 10.56-.5.86-.59 2.03.05 2.79.34.4.83.63 1.32.8 4.77 1.67 10.94-.98 15.78-1.57.91-.12 2.13-.23 3.47-.39zM847.07 480.73c4.23-.52 9.65-1.65 10.12-5.61.13-1.05-.24-2.11-.8-3.01-1.74-2.78-4.87-3.59-7.94-3.57-7.87.05-17.76 3.33-22 10.56-.5.86-.59 2.03.05 2.79.34.4.83.63 1.32.8 4.77 1.67 10.94-.98 15.78-1.57.91-.12 2.13-.22 3.47-.39z"></path><path fill="#fff" d="M818.19 552.28c-2.62 3.06-9.25 2.55-12.94 1.57-2.18-.58-4.33-1.56-6.28-2.83-3.52-2.29-6.44-5.55-7.95-9.2-.85-2.06-1.24-4.47-.3-6.38.08-.17.17-.33.27-.5 4.08-6.29 28.75 7.89 28.28 14.57-.08 1.15-.47 2.06-1.08 2.77z"></path><path fill="none" stroke="#231f20" stroke-linecap="round" stroke-linejoin="round" stroke-miterlimit="10" stroke-width="3.117" d="M777.18 498.01c1.93-5.19 7.09-9.01 12.62-9.35M831.05 496.68c1.71-4.91 6.23-8.73 11.36-9.6"></path><path fill="#ffcae5" d="M706.52 403.82c-9.5 5.16-17.39 12.75-23.34 21.73-5.23 7.89-14.04 17.11-15.65 26.46-1.01 5.84-.91 11.98-3.23 17.43-3.18 7.49-10.57 12.86-12.64 20.73-1.07 4.07-.59 8.39-1.35 12.53-2.28 12.41-15.14 21.05-16.67 33.57-3.26 26.58 29.66 19.01 42.51 29.35 2.15 1.73 3.45 4.28 5.12 6.49 4.85 6.43 13.29 9.94 21.26 8.84 2.92-.4 5.76-1.37 8.71-1.44 7.74-.19 14.52 5.72 22.42 5.47 2.72-.09 5.39-1.12 7.29-3.06 3.78-3.87 1.53-7.86 1.35-11.86-.45-10.02 11.7-17.74 10.19-27.66-.59-3.9-3.26-7.17-4.34-10.96-1.19-4.16-.39-8.59.42-12.84 2.32-12.21 4.42-23.95 8.56-35.58 1.38-3.86 13.62-36.55 11.35-38.39 4.31 4.67 8.76 9.45 14.48 12.21 5.72 2.76 13.09 3.07 18.03-.93 4.72-3.82 5.51-11.73.87-15.8 9.09 10.56 26.54 18.21 40.41 18.45 5.84.1 12.28-1.4 15.63-6.18 2.52-3.6 2.76-8.42 1.64-12.68-3.1-11.84-16.83-25.21-26.21-32.68-11.44-9.11-25.26-14.75-39.55-17.5-3.02-.58-51.48-2.41-50.69 3.96l-3.59-29.41c-.18-1.48-.78-2.92-1.88-3.92-2.81-2.56-5.73-.71-7.5 1.47-5.16 6.36-4.44 15.48-3.45 23.61-3.84-5.1-7.67-10.2-11.51-15.3-.02-.03-.04-.05-.06-.08-2.67-3.54-8.39-1.34-7.98 3.07.9 9.68 4.95 19.08 11.51 26.28-4.6 1.37-7.91 2.34-12.11 4.62z"></path><path fill="#ffcae5" d="M842.97 440.78c6.25 4.64 10.41 10.72 15.04 16.88 1.55 2.06 3.57 4.35 6.14 4.13 3.32-.28 4.73-4.35 5.02-7.67 2.19-24.33-28.56-50.66-51.6-53.98-13.03-1.88-17.95 4.59-11.57 16.85 7.04 13.53 22.31 14.52 33.95 21.74 1.05.64 2.05 1.33 3.02 2.05z"></path><path fill="#231f20" d="M818.19 552.28c-2.62 3.06-9.25 2.55-12.94 1.57-2.18-.58-4.33-1.56-6.28-2.83-3.52-2.29-6.44-5.55-7.95-9.2-.85-2.06-1.24-4.47-.3-6.38l27.47 16.84z"></path><circle cx="714.22" cy="503.64" r="37.22" fill="#f9956e" transform="rotate(-87.713 714.235 503.637)"></circle><path fill="#231f20" d="m815.6 599.63-56.59-9.75 56.3 32.54z"></path><circle cx="1247.44" cy="397.05" r="139.68" fill="none" stroke="#e8e3df" stroke-linecap="round" stroke-linejoin="round" stroke-miterlimit="10" stroke-width="3.301"></circle><path fill="none" stroke="#e8e3df" stroke-linecap="round" stroke-linejoin="round" stroke-miterlimit="10" stroke-width="3.301" d="M1247.44 257.37v279.36M1107.76 397.05h279.36M1153.67 293.51h187.53M1117.68 448.82h259.52M1153.65 500.58h187.57M1117.68 345.29H1377.2M1247.44 257.37c100.12 65.73 106.22 202.07 0 279.36M1246.59 257.37c-100.12 65.73-106.22 202.07 0 279.36M393.36 187.13h-80.7c-14.65 0-26.53 11.88-26.53 26.53v36.08c0 14.65 11.88 26.53 26.53 26.53h45l17.66 40.33 15.12-40.33h2.92c14.65 0 26.53-11.88 26.53-26.53v-36.08c0-14.65-11.87-26.53-26.53-26.53z"></path><path fill="none" stroke="#e8e3df" stroke-linecap="round" stroke-linejoin="round" stroke-miterlimit="10" stroke-width="3.301" d="M377.24 256.02h-49.46v0c0-12.55 10.17-22.73 22.73-22.73h4.01c12.55 0 22.72 10.18 22.72 22.73h0z"></path><circle cx="352.51" cy="217.67" r="11.06" fill="none" stroke="#e8e3df" stroke-linecap="round" stroke-linejoin="round" stroke-miterlimit="10" stroke-width="3.301"></circle><path fill="#ffb85e" d="M412.64 1017.05H159.63c-24.98 0-45.23-20.25-45.23-45.23v-35.67c0-24.98 20.25-45.23 45.23-45.23h253.02c24.98 0 45.23 20.25 45.23 45.23v35.67c-.01 24.98-20.26 45.23-45.24 45.23z"></path><path fill="#ffb85e" d="m375.4 1011.43 27.36 37.32 14.03-37.32z"></path><path fill="none" stroke="#231f20" stroke-linecap="round" stroke-linejoin="round" stroke-miterlimit="10" stroke-width="4.214" d="M163.74 924.52h256.84M163.74 954.66h256.84M163.74 984.8h156.71"></path><path fill="#ffb85e" d="M1347.24 1375.45h253.02c24.98 0 45.23-20.25 45.23-45.23v-35.67c0-24.98-20.25-45.23-45.23-45.23h-253.02c-24.98 0-45.23 20.25-45.23 45.23v35.67c0 24.98 20.25 45.23 45.23 45.23z"></path><path fill="#ffb85e" d="m1384.49 1369.83-27.37 37.32-14.03-37.32z"></path><path fill="none" stroke="#231f20" stroke-linecap="round" stroke-linejoin="round" stroke-miterlimit="10" stroke-width="4.214" d="M1596.14 1282.92h-256.83M1596.14 1313.06h-256.83M1596.14 1343.2h-156.71"></path><path fill="#f7f5f2" d="M1209.18 822.21h355.87c24.98 0 45.23-20.25 45.23-45.23v-73.43c0-24.98-20.25-45.23-45.23-45.23h-355.87c-24.98 0-45.23 20.25-45.23 45.23v73.43c0 24.98 20.25 45.23 45.23 45.23z"></path><path fill="#f7f5f2" d="m1271.13 813.45-35.57 48.49-18.22-48.49z"></path><path fill="none" stroke="#231f20" stroke-linecap="round" stroke-linejoin="round" stroke-miterlimit="10" stroke-width="4.214" d="M1546.17 702.09h-333.75M1546.17 744.17h-203.65M1310.49 744.17h-8.48M1284.04 744.17h-8.48M1257.14 744.17h-8.48"></path><path fill="#f97258" d="M505.71 612.31H149.84c-24.98 0-45.23-20.25-45.23-45.23v-73.43c0-24.98 20.25-45.23 45.23-45.23h355.87c24.98 0 45.23 20.25 45.23 45.23v73.43c0 24.98-20.25 45.23-45.23 45.23zM435.1 612.31l35.56 48.49 18.23-48.49z"></path><path fill="none" stroke="#231f20" stroke-linecap="round" stroke-linejoin="round" stroke-miterlimit="10" stroke-width="4.214" d="M168.73 499.27h333.75M168.73 534.37h333.75M168.73 569.46h333.75"></path><path fill="#ddd" d="M2019.16 1024.51h-92.05v-19.57c0-12.55 10.17-22.73 22.73-22.73h46.6c12.55 0 22.73 10.17 22.73 22.73v19.57z"></path><circle cx="1973.14" cy="953.15" r="20.59" fill="#ddd"></circle><path fill="#ddd" d="M2019.16 1225.44h-92.05v-19.57c0-12.55 10.17-22.73 22.73-22.73h46.6c12.55 0 22.73 10.17 22.73 22.73v19.57z"></path><circle cx="1973.14" cy="1154.08" r="20.59" fill="#ddd"></circle><path fill="#ddd" d="M2019.16 1589.94h-92.05v-19.57c0-12.55 10.17-22.73 22.73-22.73h46.6c12.55 0 22.73 10.17 22.73 22.73v19.57z"></path><circle cx="1973.14" cy="1518.58" r="20.59" fill="#ddd"></circle><circle cx="1006.37" cy="447.18" r="14.11" fill="none" stroke="#e8e3df" stroke-linecap="round" stroke-linejoin="round" stroke-miterlimit="10" stroke-width="3.301"></circle><circle cx="1085.71" cy="837.7" r="14.11" fill="none" stroke="#e8e3df" stroke-linecap="round" stroke-linejoin="round" stroke-miterlimit="10" stroke-width="3.301"></circle><circle cx="550.94" cy="330.71" r="14.11" fill="none" stroke="#e8e3df" stroke-linecap="round" stroke-linejoin="round" stroke-miterlimit="10" stroke-width="3.301"></circle><path fill="#f4f1ed" d="M1084.62 208.39c15.54-2.38 21.24-16.81 22.72-36.58 2.96 18.6 7.75 33.43 23.56 36.58-13.6 5.8-21.6 16.63-23.56 33.02-.54-15.77-8.77-26.33-22.72-33.02zM1515.36 414.45c7.39-1.13 10.1-8 10.81-17.4 1.41 8.85 3.69 15.9 11.21 17.4-6.47 2.76-10.27 7.91-11.21 15.71-.25-7.5-4.17-12.53-10.81-15.71zM157.72 128.09c7.39-1.13 10.1-8 10.81-17.4 1.41 8.85 3.69 15.9 11.21 17.4-6.47 2.76-10.27 7.91-11.21 15.71-.26-7.51-4.18-12.53-10.81-15.71zM573.11 141.22c7.39-1.13 10.1-8 10.81-17.4 1.41 8.85 3.69 15.9 11.21 17.4-6.47 2.76-10.27 7.91-11.21 15.71-.25-7.51-4.17-12.53-10.81-15.71zM1366.19 161.2c7.39-1.13 10.1-8 10.81-17.4 1.41 8.85 3.69 15.9 11.21 17.4-6.47 2.76-10.27 7.91-11.21 15.71-.26-7.5-4.18-12.53-10.81-15.71z"></path></svg>