<svg xmlns="http://www.w3.org/2000/svg" width="588" height="512" fill="none" viewBox="0 0 588 512" id="polygon-matic"><g clip-path="url(#clip0_602_929)"><path fill="#8247E5" d="M443.85 155.893C433.151 149.779 419.396 149.779 407.169 155.893L321.581 206.328L263.504 238.424L179.444 288.86C168.745 294.973 154.99 294.973 142.763 288.86L77.0439 249.122C66.3454 243.009 58.7036 230.782 58.7036 217.027V140.609C58.7036 128.382 64.817 116.155 77.0439 108.513L142.763 70.3045C153.462 64.191 167.217 64.191 179.444 70.3045L245.163 110.042C255.862 116.155 263.504 128.382 263.504 142.137V192.573L321.581 158.949V106.985C321.581 94.7582 315.468 82.5313 303.241 74.8896L180.972 3.05672C170.274 -3.05671 156.519 -3.05671 144.292 3.05672L18.9663 76.4179C6.73941 82.5313 0.625977 94.7582 0.625977 106.985V250.651C0.625977 262.878 6.73941 275.104 18.9663 282.746L142.763 354.579C153.462 360.693 167.217 360.693 179.444 354.579L263.504 305.672L321.581 272.048L405.641 223.14C416.339 217.027 430.095 217.027 442.322 223.14L508.041 261.349C518.739 267.463 526.381 279.69 526.381 293.445V369.863C526.381 382.09 520.268 394.316 508.041 401.958L443.85 440.167C433.151 446.281 419.396 446.281 407.169 440.167L341.45 401.958C330.751 395.845 323.11 383.618 323.11 369.863V320.955L265.032 354.579V405.015C265.032 417.242 271.145 429.469 283.372 437.11L407.169 508.943C417.868 515.057 431.623 515.057 443.85 508.943L567.647 437.11C578.345 430.997 585.987 418.77 585.987 405.015V259.821C585.987 247.594 579.874 235.367 567.647 227.725L443.85 155.893Z"></path></g><defs><clipPath id="clip0_602_929"><rect width="586.89" height="512" fill="#fff" transform="translate(.626)"></rect></clipPath></defs></svg>